<svg width="24" height="24" viewBox="0 0 24 24" fill="none" xmlns="http://www.w3.org/2000/svg">
<path d="M22 0H2C1.46957 0 0.960859 0.210714 0.585786 0.585786C0.210714 0.960859 0 1.46957 0 2V22C0 22.5304 0.210714 23.0391 0.585786 23.4142C0.960859 23.7893 1.46957 24 2 24H22C22.5304 24 23.0391 23.7893 23.4142 23.4142C23.7893 23.0391 24 22.5304 24 22V2C24 1.46957 23.7893 0.960859 23.4142 0.585786C23.0391 0.210714 22.5304 0 22 0ZM22 22H2V2H22V22ZM16.7075 8.7075L13.4137 12L16.7075 15.2925C16.8004 15.3854 16.8741 15.4957 16.9244 15.6171C16.9747 15.7385 17.0006 15.8686 17.0006 16C17.0006 16.1314 16.9747 16.2615 16.9244 16.3829C16.8741 16.5043 16.8004 16.6146 16.7075 16.7075C16.6146 16.8004 16.5043 16.8741 16.3829 16.9244C16.2615 16.9747 16.1314 17.0006 16 17.0006C15.8686 17.0006 15.7385 16.9747 15.6171 16.9244C15.4957 16.8741 15.3854 16.8004 15.2925 16.7075L12 13.4137L8.7075 16.7075C8.61459 16.8004 8.50429 16.8741 8.3829 16.9244C8.2615 16.9747 8.1314 17.0006 8 17.0006C7.86861 17.0006 7.7385 16.9747 7.6171 16.9244C7.49571 16.8741 7.38541 16.8004 7.2925 16.7075C7.19959 16.6146 7.12589 16.5043 7.07561 16.3829C7.02532 16.2615 6.99944 16.1314 6.99944 16C6.99944 15.8686 7.02532 15.7385 7.07561 15.6171C7.12589 15.4957 7.19959 15.3854 7.2925 15.2925L10.5863 12L7.2925 8.7075C7.10486 8.51986 6.99944 8.26536 6.99944 8C6.99944 7.73464 7.10486 7.48014 7.2925 7.2925C7.48014 7.10486 7.73464 6.99944 8 6.99944C8.26536 6.99944 8.51986 7.10486 8.7075 7.2925L12 10.5863L15.2925 7.2925C15.3854 7.19959 15.4957 7.12589 15.6171 7.07561C15.7385 7.02532 15.8686 6.99944 16 6.99944C16.1314 6.99944 16.2615 7.02532 16.3829 7.07561C16.5043 7.12589 16.6146 7.19959 16.7075 7.2925C16.8004 7.38541 16.8741 7.49571 16.9244 7.6171C16.9747 7.7385 17.0006 7.86861 17.0006 8C17.0006 8.1314 16.9747 8.2615 16.9244 8.3829C16.8741 8.50429 16.8004 8.61459 16.7075 8.7075Z" fill="#2C3A64"/>
</svg>
