<svg width="42" height="42" viewBox="0 0 42 42" fill="none" xmlns="http://www.w3.org/2000/svg">
<rect width="42" height="42" rx="21" fill="#00B25B"/>
<path d="M28.4474 23.105L24.4474 21.105C24.29 21.0265 24.1146 20.991 23.939 21.002C23.7634 21.0129 23.5939 21.07 23.4474 21.1675L21.6112 22.3925C20.7682 21.9291 20.0745 21.2354 19.6112 20.3925L20.8362 18.5562C20.9336 18.4098 20.9907 18.2402 21.0017 18.0646C21.0127 17.8891 20.9771 17.7137 20.8987 17.5562L18.8987 13.5563C18.8158 13.3888 18.6876 13.248 18.5288 13.1497C18.3699 13.0514 18.1867 12.9995 17.9999 13C16.6738 13 15.4021 13.5268 14.4644 14.4645C13.5267 15.4021 12.9999 16.6739 12.9999 18C13.0032 20.9164 14.1632 23.7123 16.2254 25.7745C18.2876 27.8367 21.0835 28.9967 23.9999 29C24.6565 29 25.3067 28.8707 25.9133 28.6194C26.52 28.3681 27.0711 27.9998 27.5354 27.5355C27.9997 27.0712 28.368 26.52 28.6193 25.9134C28.8706 25.3068 28.9999 24.6566 28.9999 24C29 23.8142 28.9484 23.6321 28.8508 23.474C28.7532 23.3159 28.6135 23.1881 28.4474 23.105ZM23.9999 27C21.6138 26.9974 19.3261 26.0483 17.6389 24.361C15.9516 22.6738 15.0026 20.3861 14.9999 18C14.9997 17.3064 15.2399 16.6342 15.6795 16.0977C16.1191 15.5612 16.731 15.1936 17.4112 15.0575L18.8462 17.9325L17.6249 19.75C17.5336 19.8869 17.4776 20.0442 17.4617 20.2079C17.4457 20.3717 17.4705 20.5368 17.5337 20.6888C18.2491 22.3892 19.6019 23.742 21.3024 24.4575C21.4548 24.5235 21.6212 24.5505 21.7866 24.5361C21.952 24.5217 22.1112 24.4663 22.2499 24.375L24.0762 23.1575L26.9512 24.5925C26.814 25.2734 26.4448 25.8856 25.9066 26.3247C25.3684 26.7637 24.6945 27.0024 23.9999 27ZM20.9999 8C18.7555 7.99951 16.5492 8.58011 14.5957 9.68529C12.6423 10.7905 11.0082 12.3826 9.85262 14.3066C8.69703 16.2307 8.05926 18.4212 8.00139 20.6648C7.94353 22.9085 8.46753 25.1289 9.52241 27.11L8.10366 31.3662C7.98614 31.7186 7.96908 32.0968 8.05441 32.4583C8.13973 32.8199 8.32405 33.1505 8.58672 33.4132C8.84939 33.6759 9.18003 33.8602 9.54157 33.9455C9.90311 34.0308 10.2813 34.0138 10.6337 33.8962L14.8899 32.4775C16.6334 33.4048 18.5652 33.9228 20.5387 33.992C22.5122 34.0613 24.4756 33.68 26.2797 32.8772C28.0839 32.0743 29.6815 30.871 30.9512 29.3586C32.2209 27.8462 33.1293 26.0644 33.6076 24.1484C34.0858 22.2325 34.1213 20.2328 33.7113 18.301C33.3013 16.3693 32.4567 14.5564 31.2414 12.9999C30.0262 11.4434 28.4723 10.1842 26.6978 9.31782C24.9232 8.45149 22.9746 8.00081 20.9999 8ZM20.9999 32C19.0661 32.0013 17.1663 31.4921 15.4924 30.5238C15.3699 30.4527 15.2336 30.4085 15.0927 30.394C14.9517 30.3796 14.8093 30.3953 14.6749 30.44L9.99991 32L11.5587 27.325C11.6036 27.1907 11.6195 27.0483 11.6052 26.9074C11.591 26.7665 11.547 26.6301 11.4762 26.5075C10.2636 24.4111 9.77679 21.9732 10.0912 19.572C10.4056 17.1707 11.5036 14.9403 13.215 13.2267C14.9264 11.5132 17.1554 10.4123 19.5563 10.0949C21.9572 9.77747 24.3957 10.2612 26.4936 11.4711C28.5915 12.681 30.2314 14.5494 31.1591 16.7864C32.0868 19.0235 32.2502 21.5042 31.6242 23.8436C30.9981 26.1831 29.6176 28.2505 27.6966 29.7253C25.7756 31.2 23.4217 31.9996 20.9999 32Z" fill="white"/>
</svg>
