<svg width="42" height="42" viewBox="0 0 42 42" fill="none" xmlns="http://www.w3.org/2000/svg">
<rect width="42" height="42" rx="21" fill="#00B25B"/>
<path d="M28.4475 23.105L24.4475 21.105C24.2901 21.0265 24.1147 20.991 23.9391 21.002C23.7636 21.0129 23.594 21.07 23.4475 21.1675L21.6113 22.3925C20.7683 21.9291 20.0747 21.2354 19.6113 20.3925L20.8363 18.5562C20.9337 18.4098 20.9908 18.2402 21.0018 18.0646C21.0128 17.8891 20.9772 17.7137 20.8988 17.5562L18.8988 13.5563C18.8159 13.3888 18.6877 13.248 18.5289 13.1497C18.3701 13.0514 18.1868 12.9995 18 13C16.6739 13 15.4022 13.5268 14.4645 14.4645C13.5268 15.4021 13 16.6739 13 18C13.0033 20.9164 14.1633 23.7123 16.2255 25.7745C18.2877 27.8367 21.0837 28.9967 24 29C24.6566 29 25.3068 28.8707 25.9134 28.6194C26.5201 28.3681 27.0713 27.9998 27.5356 27.5355C27.9999 27.0712 28.3682 26.52 28.6194 25.9134C28.8707 25.3068 29 24.6566 29 24C29.0002 23.8142 28.9485 23.6321 28.851 23.474C28.7534 23.3159 28.6137 23.1881 28.4475 23.105ZM24 27C21.6139 26.9974 19.3262 26.0483 17.639 24.361C15.9517 22.6738 15.0027 20.3861 15 18C14.9998 17.3064 15.24 16.6342 15.6796 16.0977C16.1192 15.5612 16.7312 15.1936 17.4113 15.0575L18.8463 17.9325L17.625 19.75C17.5338 19.8869 17.4777 20.0442 17.4618 20.2079C17.4459 20.3717 17.4706 20.5368 17.5338 20.6888C18.2493 22.3892 19.602 23.742 21.3025 24.4575C21.4549 24.5235 21.6213 24.5505 21.7867 24.5361C21.9521 24.5217 22.1114 24.4663 22.25 24.375L24.0763 23.1575L26.9513 24.5925C26.8141 25.2734 26.4449 25.8856 25.9067 26.3247C25.3685 26.7637 24.6946 27.0024 24 27ZM21 8C18.7556 7.99951 16.5493 8.58011 14.5958 9.68529C12.6424 10.7905 11.0083 12.3826 9.85274 14.3066C8.69715 16.2307 8.05938 18.4212 8.00151 20.6648C7.94365 22.9085 8.46765 25.1289 9.52253 27.11L8.10378 31.3662C7.98626 31.7186 7.96921 32.0968 8.05453 32.4583C8.13985 32.8199 8.32417 33.1505 8.58684 33.4132C8.84951 33.6759 9.18015 33.8602 9.54169 33.9455C9.90323 34.0308 10.2814 34.0138 10.6338 33.8962L14.89 32.4775C16.6335 33.4048 18.5653 33.9228 20.5388 33.992C22.5123 34.0613 24.4757 33.68 26.2799 32.8772C28.084 32.0743 29.6816 30.871 30.9513 29.3586C32.221 27.8462 33.1294 26.0644 33.6077 24.1484C34.0859 22.2325 34.1214 20.2328 33.7114 18.301C33.3015 16.3693 32.4568 14.5564 31.2416 12.9999C30.0263 11.4434 28.4725 10.1842 26.6979 9.31782C24.9234 8.45149 22.9748 8.00081 21 8ZM21 32C19.0663 32.0013 17.1664 31.4921 15.4925 30.5238C15.37 30.4527 15.2337 30.4085 15.0928 30.394C14.9518 30.3796 14.8095 30.3953 14.675 30.44L10 32L11.5588 27.325C11.6037 27.1907 11.6196 27.0483 11.6054 26.9074C11.5911 26.7665 11.5471 26.6301 11.4763 26.5075C10.2637 24.4111 9.77692 21.9732 10.0913 19.572C10.4057 17.1707 11.5038 14.9403 13.2151 13.2267C14.9265 11.5132 17.1555 10.4123 19.5564 10.0949C21.9573 9.77747 24.3958 10.2612 26.4937 11.4711C28.5916 12.681 30.2316 14.5494 31.1592 16.7864C32.0869 19.0235 32.2504 21.5042 31.6243 23.8436C30.9983 26.1831 29.6177 28.2505 27.6967 29.7253C25.7757 31.2 23.4218 31.9996 21 32Z" fill="white"/>
</svg>
