<svg width="69" height="100" viewBox="0 0 69 100" fill="none" xmlns="http://www.w3.org/2000/svg">
<path d="M46.116 99.4259L53.4913 88.4402L66.2159 92.0506L48.9259 44.9336L28.826 52.3089L46.116 99.4259Z" fill="#093F68"/>
<path d="M46.122 99.9785H46.0557C45.9545 99.9664 45.8586 99.9264 45.7787 99.8631C45.6988 99.7997 45.638 99.7155 45.603 99.6197L28.313 52.5083C28.2875 52.4398 28.2759 52.367 28.2788 52.294C28.2817 52.221 28.2991 52.1493 28.3299 52.083C28.3607 52.0168 28.4043 51.9573 28.4583 51.9081C28.5123 51.8588 28.5755 51.8208 28.6442 51.7961L48.7386 44.4374C48.8763 44.3877 49.028 44.3946 49.1605 44.4567C49.293 44.5188 49.3954 44.631 49.4453 44.7686L66.7353 91.88C66.7707 91.9756 66.779 92.0792 66.7593 92.1792C66.7395 92.2792 66.6924 92.3717 66.6232 92.4466C66.5541 92.5215 66.4655 92.5758 66.3674 92.6034C66.2693 92.6311 66.1654 92.631 66.0673 92.6032L53.7236 89.1033L46.547 99.7577C46.4973 99.8241 46.4333 99.8784 46.3597 99.9166C46.2861 99.9549 46.2048 99.976 46.122 99.9785ZM29.5606 52.6408L46.282 98.2175L53.0556 88.1317C53.1208 88.0357 53.2146 87.9628 53.3236 87.9231C53.4326 87.8835 53.5513 87.8792 53.6629 87.9108L65.3496 91.2231L48.6227 45.6408L29.5606 52.6408Z" fill="#093F68"/>
<path d="M22.941 99.4259L15.5657 88.4402L2.84113 92.0506L20.1311 44.9336L40.2311 52.3089L22.941 99.4259Z" fill="#68E1FD"/>
<path d="M22.9361 99.9779C22.8457 99.978 22.7566 99.956 22.6767 99.9136C22.5968 99.8713 22.5285 99.8099 22.4779 99.735L15.3013 89.0806L2.95763 92.5805C2.85954 92.6083 2.75568 92.6084 2.65756 92.5807C2.55943 92.5531 2.47087 92.4988 2.4017 92.4239C2.33253 92.349 2.28545 92.2565 2.26568 92.1565C2.2459 92.0564 2.2542 91.9529 2.28966 91.8573L19.6238 44.7459C19.6737 44.6083 19.7761 44.4961 19.9086 44.434C20.0411 44.3719 20.1928 44.365 20.3305 44.4147L40.4304 51.79C40.4992 51.8146 40.5623 51.8527 40.6163 51.9019C40.6703 51.9512 40.7139 52.0106 40.7447 52.0769C40.7755 52.1431 40.7929 52.2148 40.7958 52.2878C40.7987 52.3608 40.7871 52.4336 40.7616 52.5021L23.4881 99.6412C23.4532 99.7369 23.3924 99.8212 23.3125 99.8845C23.2326 99.9478 23.1367 99.9878 23.0355 100L22.9361 99.9779ZM15.5608 87.8881C15.6512 87.888 15.7403 87.9101 15.8202 87.9524C15.9001 87.9948 15.9684 88.0561 16.019 88.131L22.7926 98.2169L39.4974 52.6401L20.4353 45.6402L3.70841 91.2225L15.3952 87.9102C15.4503 87.8922 15.5084 87.8847 15.5663 87.8881H15.5608Z" fill="#093F68"/>
<path d="M68.4516 32.9112C68.4516 36.3118 63.1906 38.8401 62.1969 41.904C61.1646 45.0838 63.8972 50.2123 61.9706 52.8565C60.044 55.5008 54.2917 54.5127 51.6253 56.4448C48.9589 58.377 48.1916 64.1734 45.0008 65.1837C41.9369 66.1774 37.918 61.9984 34.5119 61.9984C31.1058 61.9984 27.0925 66.1774 24.0231 65.1837C20.8433 64.1514 20.0594 58.3715 17.3986 56.4448C14.7377 54.5182 8.99645 55.5284 7.05326 52.8565C5.11006 50.1847 7.85925 45.0838 6.82693 41.904C5.83325 38.8401 0.572266 36.3118 0.572266 32.9112C0.572266 29.5106 5.83325 26.9878 6.82693 23.9239C7.85925 20.7441 5.12662 15.6433 7.05326 12.9714C8.97989 10.2995 14.7653 11.3152 17.4151 9.38308C20.0649 7.45093 20.8488 1.65446 24.0397 0.644224C27.1035 -0.349455 31.1224 3.82952 34.5285 3.82952C37.9346 3.82952 41.948 -0.349455 45.0173 0.644224C48.1971 1.67655 48.981 7.45645 51.6419 9.38308C54.3027 11.3097 60.044 10.2995 61.9872 12.9714C63.9304 15.6433 61.1812 20.7441 62.2135 23.9239C63.1906 26.9878 68.4516 29.5327 68.4516 32.9112Z" fill="#68E1FD"/>
<path d="M44.0074 65.89C42.4341 65.89 40.7504 65.0233 39.1163 64.1842C37.4823 63.3451 35.931 62.5281 34.5288 62.5281C33.1266 62.5281 31.5092 63.3561 29.9413 64.1842C27.8933 65.2386 25.7734 66.3261 23.8689 65.7078C21.876 65.0619 20.7829 62.8814 19.723 60.7725C18.9612 59.2434 18.1662 57.6645 17.1063 56.9082C16.0464 56.1519 14.2578 55.8483 12.5575 55.5889C10.2389 55.23 7.84302 54.8602 6.63405 53.1985C5.42507 51.5368 5.81702 49.1741 6.18689 46.8721C6.46291 45.1607 6.73893 43.3887 6.33042 42.0914C5.92191 40.7941 4.75157 39.701 3.49291 38.4645C1.80366 36.8083 0.0481567 35.0694 0.0481567 32.944C0.0481567 30.8186 1.80366 29.0797 3.49291 27.4236C4.75157 26.1815 5.93295 25.0167 6.33042 23.7966C6.72789 22.5766 6.46291 20.7273 6.18689 19.0104C5.81702 16.7139 5.43611 14.3401 6.63405 12.6895C7.83198 11.0389 10.2389 10.658 12.5575 10.2992C14.2578 10.0397 16.0243 9.74712 17.1063 8.97978C18.1883 8.21244 18.9612 6.62807 19.723 5.11547C20.7829 3.00667 21.876 0.826096 23.8689 0.180204C25.7679 -0.438085 27.8877 0.649441 29.9413 1.70384C31.5092 2.50431 33.1266 3.35997 34.5288 3.35997C35.931 3.35997 37.5485 2.52639 39.1163 1.70384C41.1644 0.649441 43.2842 -0.438085 45.1888 0.180204C47.1817 0.826096 48.2747 3.00667 49.3347 5.11547C50.0965 6.64464 50.8914 8.22348 51.9513 8.97978C53.0113 9.73608 54.7999 10.0397 56.5002 10.2992C58.8188 10.658 61.2146 11.0223 62.4236 12.6895C63.6326 14.3567 63.2406 16.7139 62.8708 19.0104C62.5947 20.7273 62.3187 22.4993 62.7272 23.7966C63.1358 25.0939 64.3061 26.1815 65.5648 27.4236C67.254 29.0797 69.0095 30.8186 69.0095 32.944C69.0095 35.0694 67.254 36.8083 65.5648 38.4645C64.3061 39.7065 63.1247 40.8714 62.7272 42.0914C62.3298 43.3114 62.5947 45.1607 62.8708 46.8721C63.2406 49.1741 63.6216 51.5479 62.4236 53.1985C61.2257 54.8491 58.8188 55.23 56.5002 55.5889C54.7999 55.8483 53.0333 56.1409 51.9513 56.9082C50.8693 57.6756 50.0965 59.2599 49.3347 60.7725C48.2747 62.8814 47.1817 65.0619 45.1888 65.7078C44.8075 65.8324 44.4085 65.8939 44.0074 65.89ZM25.0613 1.04139C24.7748 1.03862 24.4897 1.08148 24.2167 1.16836C22.6654 1.67072 21.6717 3.64152 20.7167 5.55159C19.8941 7.20772 19.0606 8.89698 17.7577 9.82993C16.4549 10.7629 14.5614 11.0665 12.7286 11.3481C10.6364 11.6682 8.47235 11.9995 7.52836 13.2968C6.58436 14.5941 6.93215 16.609 7.28545 18.8172C7.58356 20.661 7.88719 22.5656 7.38483 24.1168C6.88247 25.6681 5.5686 26.9102 4.27682 28.1854C2.74213 29.698 1.15777 31.2603 1.15777 32.933C1.15777 34.6057 2.74213 36.1735 4.27682 37.6861C5.5686 38.9613 6.90455 40.2807 7.38483 41.7546C7.86511 43.2286 7.58356 45.2104 7.28545 47.0543C6.93215 49.2238 6.60092 51.2774 7.52836 52.5747C8.45579 53.872 10.6364 54.2308 12.7286 54.5234C14.5614 54.805 16.4604 55.0755 17.7577 56.0415C19.055 57.0076 19.8941 58.6748 20.7167 60.3199C21.6717 62.2244 22.6599 64.1842 24.2167 64.7031C25.6796 65.1779 27.5289 64.2394 29.4335 63.2457C31.0896 62.3845 32.8617 61.4902 34.5288 61.4902C36.196 61.4902 37.9405 62.3845 39.6242 63.2457C41.5564 64.2394 43.3781 65.1779 44.841 64.7031C46.3923 64.2007 47.3859 62.2244 48.341 60.3199C49.1635 58.6637 49.9971 56.9745 51.2999 56.0415C52.6028 55.1086 54.4963 54.805 56.3291 54.5234C58.4213 54.2032 60.5853 53.872 61.5293 52.5747C62.4733 51.2774 62.1255 49.2624 61.7722 47.0543C61.4741 45.2104 61.1705 43.3059 61.6728 41.7546C62.1752 40.2034 63.4891 38.9613 64.7808 37.6861C66.3155 36.1735 67.8999 34.6112 67.8999 32.933C67.8999 31.2548 66.3155 29.698 64.7808 28.1854C63.4891 26.9102 62.1531 25.5908 61.6728 24.1168C61.1926 22.6429 61.4741 20.661 61.7722 18.8172C62.1255 16.6422 62.4567 14.5941 61.5293 13.2968C60.6019 11.9995 58.4213 11.6406 56.3291 11.3481C54.4963 11.0665 52.5972 10.796 51.2999 9.82993C50.0026 8.86385 49.1635 7.19668 48.341 5.55159C47.3859 3.64152 46.3978 1.68728 44.841 1.16836C43.3781 0.693603 41.5287 1.63208 39.6242 2.62576C37.9681 3.48695 36.196 4.38126 34.5288 4.38126C32.8617 4.38126 31.1172 3.48695 29.4335 2.62576C27.8601 1.81425 26.3531 1.04139 25.0613 1.04139Z" fill="#093F68"/>
<path d="M34.5288 57.0407C47.8554 57.0407 58.6587 46.2374 58.6587 32.9109C58.6587 19.5843 47.8554 8.78101 34.5288 8.78101C21.2023 8.78101 10.399 19.5843 10.399 32.9109C10.399 46.2374 21.2023 57.0407 34.5288 57.0407Z" fill="white"/>
<path d="M34.5291 57.593C29.6475 57.593 24.8755 56.1455 20.8166 53.4334C16.7577 50.7213 13.5941 46.8665 11.726 42.3565C9.85792 37.8465 9.36914 32.8838 10.3215 28.096C11.2739 23.3081 13.6246 18.9102 17.0764 15.4584C20.5282 12.0066 24.9261 9.65587 29.7139 8.70351C34.5017 7.75116 39.4644 8.23994 43.9745 10.1081C48.4845 11.9762 52.3393 15.1397 55.0514 19.1986C57.7634 23.2575 59.211 28.0295 59.211 32.9111C59.2037 39.455 56.601 45.7286 51.9738 50.3558C47.3466 54.983 41.0729 57.5857 34.5291 57.593ZM34.5291 9.33887C29.8656 9.33887 25.3069 10.7218 21.4294 13.3128C17.552 15.9038 14.5299 19.5865 12.7456 23.8951C10.9612 28.2037 10.4946 32.9447 11.4048 37.5185C12.315 42.0923 14.5611 46.2934 17.8591 49.5906C21.157 52.8878 25.3587 55.133 29.9327 56.0421C34.5067 56.9512 39.2476 56.4835 43.5558 54.6981C47.864 52.9127 51.5459 49.8899 54.136 46.0118C56.7261 42.1337 58.108 37.5746 58.1069 32.9111C58.0996 26.6607 55.613 20.6684 51.1927 16.2492C46.7725 11.8299 40.7796 9.34471 34.5291 9.33887Z" fill="#093F68"/>
<path d="M37.079 18.1444L39.7674 26.4251C39.8247 26.5871 39.9309 26.7272 40.0714 26.8261C40.2118 26.925 40.3795 26.9778 40.5513 26.9771H49.2681C49.8344 26.9762 50.3864 27.1549 50.8448 27.4874C51.3031 27.82 51.6442 28.2893 51.8191 28.8279C51.9939 29.3665 51.9935 29.9467 51.8178 30.4851C51.6421 31.0234 51.3003 31.4922 50.8414 31.8241L43.7918 36.9471C43.6516 37.0499 43.5474 37.1944 43.4939 37.3599C43.4404 37.5253 43.4403 37.7035 43.4937 37.869L46.1877 46.1496C46.3608 46.6876 46.3596 47.2666 46.1843 47.8039C46.0089 48.3411 45.6684 48.8093 45.2113 49.1417C44.7541 49.474 44.2037 49.6534 43.6385 49.6544C43.0733 49.6554 42.5223 49.4779 42.0639 49.1472L35.0143 44.0243C34.873 43.9219 34.703 43.8668 34.5285 43.8668C34.354 43.8668 34.184 43.9219 34.0427 44.0243L26.9931 49.1472C26.5348 49.4779 25.9837 49.6554 25.4186 49.6544C24.8534 49.6534 24.303 49.474 23.8458 49.1417C23.3886 48.8093 23.0481 48.3411 22.8728 47.8039C22.6974 47.2666 22.6962 46.6876 22.8694 46.1496L25.5633 37.869C25.6167 37.7035 25.6167 37.5253 25.5632 37.3599C25.5097 37.1944 25.4054 37.0499 25.2652 36.9471L18.2156 31.8241C17.7568 31.4922 17.4149 31.0234 17.2393 30.4851C17.0636 29.9467 17.0631 29.3665 17.238 28.8279C17.4128 28.2893 17.7539 27.82 18.2123 27.4874C18.6707 27.1549 19.2227 26.9762 19.789 26.9771H28.5057C28.6775 26.9778 28.8453 26.925 28.9857 26.8261C29.1262 26.7272 29.2324 26.5871 29.2896 26.4251L31.9781 18.1444C32.1537 17.6065 32.495 17.1378 32.9531 16.8055C33.4112 16.4731 33.9626 16.2942 34.5285 16.2942C35.0945 16.2942 35.6459 16.4731 36.104 16.8055C36.5621 17.1378 36.9033 17.6065 37.079 18.1444Z" fill="#FFBC0E"/>
<path d="M25.4205 50.2512C24.9103 50.2488 24.408 50.1262 23.9541 49.8933C23.5002 49.6605 23.1076 49.3239 22.8081 48.911C22.5086 48.498 22.3106 48.0203 22.2303 47.5165C22.1499 47.0127 22.1894 46.4971 22.3456 46.0115L25.0396 37.7308C25.0578 37.6754 25.058 37.6156 25.0402 37.5601C25.0223 37.5046 24.9873 37.4561 24.9402 37.4217L17.8906 32.2932C17.3371 31.8928 16.9248 31.3273 16.713 30.6778C16.5012 30.0284 16.5008 29.3285 16.7118 28.6788C16.9229 28.0291 17.3345 27.463 17.8875 27.062C18.4406 26.661 19.1065 26.4457 19.7896 26.447H28.5009C28.559 26.447 28.6157 26.4289 28.6632 26.3952C28.7106 26.3616 28.7465 26.3142 28.7659 26.2593L31.4543 17.9787C31.6663 17.3303 32.0778 16.7654 32.63 16.3649C33.1823 15.9644 33.847 15.7488 34.5292 15.7488C35.2114 15.7488 35.8761 15.9644 36.4284 16.3649C36.9806 16.7654 37.3921 17.3303 37.6041 17.9787L40.2925 26.2593C40.3119 26.3142 40.3478 26.3616 40.3952 26.3952C40.4427 26.4289 40.4994 26.447 40.5575 26.447H49.2688C49.9519 26.4457 50.6178 26.661 51.1709 27.062C51.7239 27.463 52.1355 28.0291 52.3466 28.6788C52.5576 29.3285 52.5572 30.0284 52.3454 30.6778C52.1336 31.3273 51.7213 31.8928 51.1678 32.2932L44.1182 37.4162C44.0709 37.4491 44.0355 37.4965 44.0176 37.5513C43.9997 37.6061 44.0001 37.6653 44.0188 37.7198L46.7128 46.0004C46.921 46.6487 46.9194 47.3461 46.7082 47.9933C46.497 48.6406 46.0869 49.2047 45.5364 49.6053C44.9859 50.006 44.323 50.2227 43.6422 50.2247C42.9613 50.2267 42.2972 50.0138 41.7444 49.6163L34.6948 44.4934C34.6488 44.4584 34.5925 44.4395 34.5347 44.4395C34.4769 44.4395 34.4207 44.4584 34.3746 44.4934L27.325 49.6163C26.7741 50.0256 26.1068 50.248 25.4205 50.2512ZM19.7896 27.5567C19.3353 27.5499 18.8907 27.689 18.5212 27.9535C18.1516 28.218 17.8766 28.5939 17.7364 29.0262C17.5963 29.4584 17.5983 29.9242 17.7423 30.3552C17.8863 30.7863 18.1646 31.1598 18.5365 31.421L25.5916 36.5439C25.8267 36.7151 26.0014 36.9564 26.0907 37.2332C26.18 37.5099 26.1792 37.8079 26.0885 38.0841L23.3945 46.3648C23.2539 46.7923 23.2527 47.2534 23.391 47.6816C23.5293 48.1099 23.8 48.4832 24.164 48.7477C24.528 49.0123 24.9666 49.1545 25.4166 49.1539C25.8666 49.1532 26.3048 49.0097 26.6681 48.7441L33.7177 43.6211C33.9532 43.4489 34.2374 43.356 34.5292 43.356C34.821 43.356 35.1052 43.4489 35.3407 43.6211L42.3903 48.7441C42.7536 49.0097 43.1918 49.1532 43.6418 49.1539C44.0918 49.1545 44.5304 49.0123 44.8944 48.7477C45.2584 48.4832 45.5291 48.1099 45.6674 47.6816C45.8057 47.2534 45.8045 46.7923 45.6639 46.3648L42.9699 38.0841C42.8792 37.8079 42.8784 37.5099 42.9677 37.2332C43.057 36.9564 43.2317 36.7151 43.4668 36.5439L50.5385 31.4044C50.9103 31.1432 51.1887 30.7697 51.3327 30.3387C51.4766 29.9077 51.4787 29.4419 51.3385 29.0096C51.1984 28.5774 50.9233 28.2014 50.5538 27.9369C50.1843 27.6724 49.7397 27.5334 49.2853 27.5401H40.5575C40.2655 27.5411 39.9807 27.4491 39.7444 27.2774C39.5082 27.1057 39.3328 26.8632 39.2437 26.5851L36.5497 18.3044C36.4106 17.8782 36.1402 17.5068 35.7773 17.2435C35.4144 16.9802 34.9776 16.8385 34.5292 16.8385C34.0808 16.8385 33.644 16.9802 33.2811 17.2435C32.9182 17.5068 32.6478 17.8782 32.5087 18.3044L29.8147 26.5851C29.7256 26.8632 29.5502 27.1057 29.314 27.2774C29.0777 27.4491 28.7929 27.5411 28.5009 27.5401L19.7896 27.5567Z" fill="#093F68"/>
<path d="M28.8263 29.8578H20.6394C20.493 29.8578 20.3526 29.7996 20.2491 29.6961C20.1456 29.5925 20.0874 29.4521 20.0874 29.3057C20.0874 29.1593 20.1456 29.0189 20.2491 28.9154C20.3526 28.8118 20.493 28.7537 20.6394 28.7537H28.8263C28.9727 28.7537 29.1131 28.8118 29.2166 28.9154C29.3201 29.0189 29.3783 29.1593 29.3783 29.3057C29.3783 29.4521 29.3201 29.5925 29.2166 29.6961C29.1131 29.7996 28.9727 29.8578 28.8263 29.8578Z" fill="white"/>
</svg>
