<svg width="101" height="100" viewBox="0 0 101 100" fill="none" xmlns="http://www.w3.org/2000/svg">
<path d="M64.2114 34.8213H78.5685C80.0685 34.8213 81.2471 33.6071 81.2471 32.1428C81.2471 30.6785 80.0328 29.4642 78.5685 29.4642H64.2114C62.8542 29.4642 61.6042 28.8213 60.8185 27.7499L52.3542 16.1427C51.745 15.3385 50.77 14.9666 49.8375 15.0839C49.031 15.1051 48.2485 15.489 47.7471 16.1784L39.2828 27.7499C38.4971 28.8213 37.2114 29.4642 35.89 29.4642H21.5329C20.0686 29.4642 18.8543 30.6785 18.8543 32.1428C18.8543 33.6071 20.0686 34.8213 21.5329 34.8213H35.89C38.9257 34.8213 41.8185 33.3571 43.6042 30.9285L50.0639 22.0978L56.4971 30.8928C58.2828 33.3571 61.1757 34.8213 64.2114 34.8213Z" fill="#9B9B9B"/>
<path d="M47.4257 7.14307H52.7828V92.8574H47.4257V7.14307ZM39.5332 66.8931C39.8546 67.4288 40.4618 67.7145 41.0332 67.7145C41.3546 67.7145 41.676 67.6431 41.8903 67.4288C42.7118 66.8931 42.9618 65.7859 42.426 64.9645L23.2414 35.1845C23.0202 34.4502 22.3477 33.9288 21.5331 33.9288C20.9583 33.9288 19.9259 34.8931 19.9259 34.8931L0.675939 64.8216C0.425939 65.1074 0.283081 65.5002 0.283081 65.9288C0.283081 66.9288 1.0688 67.7145 2.0688 67.7145C2.67594 67.7145 3.24737 67.3931 3.5688 66.8931L19.7472 41.7731V67.1431C19.7472 68.1431 20.5329 68.9288 21.5329 68.9288C22.5329 68.9288 23.3186 68.1431 23.3186 67.1431V41.767L39.5332 66.8931ZM96.676 66.8931C96.9975 67.4288 97.6046 67.7145 98.1761 67.7145C98.4975 67.7145 98.8189 67.6431 99.0332 67.4288C99.8546 66.8931 100.105 65.7859 99.5689 64.9645L80.3843 35.1845C80.1628 34.4502 79.4907 33.9288 78.676 33.9288C78.1011 33.9288 77.3936 34.4824 77.0689 34.8931L57.8189 64.8216C57.5689 65.1074 57.4261 65.5002 57.4261 65.9288C57.4261 66.9288 58.2118 67.7145 59.2118 67.7145C59.8189 67.7145 60.3903 67.3931 60.7118 66.8931L76.89 41.7731V67.1431C76.89 68.1431 77.6757 68.9288 78.6757 68.9288C79.6757 68.9288 80.4614 68.1431 80.4614 67.1431V41.767L96.676 66.8931Z" fill="#D3D3D3"/>
<path d="M55.7831 5.67857C55.7831 8.81475 53.2406 11.3571 50.1045 11.3571C46.9681 11.3571 44.426 8.81475 44.426 5.67857C44.426 2.54239 46.9681 0 50.1045 0C53.2406 0 55.7831 2.54239 55.7831 5.67857Z" fill="#F9C23C"/>
<path d="M27.2116 32.1427C27.2116 35.2788 24.6692 37.8213 21.5331 37.8213C18.3969 37.8213 15.8545 35.2788 15.8545 32.1427C15.8545 29.0066 18.3969 26.4641 21.5331 26.4641C24.6692 26.4641 27.2116 29.0066 27.2116 32.1427Z" fill="#F9C23C"/>
<path d="M0.175904 66.5714C-0.145524 65.4285 0.711618 64.2856 1.9259 64.2856H41.14C42.3543 64.2856 43.2115 65.4285 42.89 66.5714C40.2472 75.7142 31.7115 82.1428 21.533 82.1428C11.3545 82.1428 2.81876 75.7142 0.175904 66.5714Z" fill="#F9C23C"/>
<path d="M57.3187 66.5714C56.9973 65.4285 57.8544 64.2856 59.0687 64.2856H98.283C99.4973 64.2856 100.354 65.4285 100.033 66.5714C97.3902 75.7142 88.8544 82.1428 78.6759 82.1428C68.4973 82.1428 59.9616 75.7142 57.3187 66.5714Z" fill="#F9C23C"/>
<path d="M76.5333 100C78.2475 100 79.069 97.9286 77.819 96.7501C70.6047 89.8929 60.8547 85.7144 50.1047 85.7144C39.3547 85.7144 29.6047 89.8929 22.3903 96.7501C21.1403 97.9286 21.9618 100 23.6761 100H76.5333Z" fill="#F9C23C"/>
<path d="M78.6759 37.8213C81.812 37.8213 84.3545 35.2788 84.3545 32.1427C84.3545 29.0066 81.812 26.4641 78.6759 26.4641C75.5395 26.4641 72.9974 29.0066 72.9974 32.1427C72.9974 35.2788 75.5395 37.8213 78.6759 37.8213Z" fill="#F9C23C"/>
</svg>
