<svg width="113" height="103" viewBox="0 0 113 103" fill="none" xmlns="http://www.w3.org/2000/svg">
<path opacity="0.8" d="M84.1292 18.5506L52.7291 38.9677C51.81 39.5652 50.6912 39.7732 49.6188 39.5458C48.5464 39.3184 47.6083 38.6743 47.0107 37.7552C46.4132 36.8361 46.2053 35.7173 46.4327 34.6449C46.6601 33.5725 47.3042 32.6344 48.2233 32.0369L79.6233 11.698C80.5424 11.1005 81.6612 10.8926 82.7336 11.1199C83.806 11.3473 84.7442 11.9914 85.3417 12.9105C85.9392 13.8296 86.1471 14.9484 85.9197 16.0208C85.6923 17.0932 85.0483 18.0313 84.1292 18.6289V18.5506Z" fill="#389BF3"/>
<path opacity="0.8" d="M42.1686 45.8357L21.1727 59.4471C20.7176 59.7429 20.2087 59.9462 19.675 60.0454C19.1414 60.1446 18.5934 60.1377 18.0624 60.0251C17.5314 59.9125 17.0278 59.6965 16.5803 59.3892C16.1328 59.082 15.7502 58.6896 15.4543 58.2346C15.1585 57.7795 14.9551 57.2706 14.856 56.7369C14.7568 56.2032 14.7637 55.6553 14.8763 55.1243C14.9889 54.5933 15.2049 54.0896 15.5122 53.6422C15.8194 53.1947 16.2118 52.8121 16.6668 52.5162L37.6628 38.8735C38.1179 38.5777 38.6268 38.3743 39.1605 38.2752C39.6941 38.176 40.2421 38.1829 40.7731 38.2955C41.3041 38.4081 41.8077 38.6241 42.2552 38.9314C42.7027 39.2386 43.0853 39.6309 43.3812 40.086C43.677 40.5411 43.8803 41.05 43.9795 41.5837C44.0787 42.1174 44.0718 42.6653 43.9592 43.1963C43.8466 43.7273 43.6305 44.2309 43.3233 44.6784C43.0161 45.1259 42.6237 45.5085 42.1686 45.8044V45.8357Z" fill="#FF9D23"/>
<path d="M69.3759 13.7474L37.9914 34.1645C37.5363 34.4603 37.0274 34.6637 36.4938 34.7629C35.9601 34.862 35.4121 34.8551 34.8811 34.7425C33.8087 34.5152 32.8706 33.8711 32.2731 32.952C31.6756 32.0329 31.4676 30.9141 31.695 29.8417C31.9224 28.7693 32.5665 27.8311 33.4856 27.2336L64.87 6.89476C65.3251 6.5989 65.834 6.39558 66.3677 6.29639C66.9013 6.19721 67.4493 6.20411 67.9803 6.31671C68.5113 6.4293 69.0149 6.64537 69.4624 6.9526C69.9099 7.25983 70.2925 7.65218 70.5884 8.10727C70.8842 8.56236 71.0875 9.07126 71.1867 9.60493C71.2859 10.1386 71.279 10.6866 71.1664 11.2176C71.0538 11.7486 70.8377 12.2522 70.5305 12.6997C70.2233 13.1472 69.8309 13.5298 69.3759 13.8256V13.7474Z" fill="#AA7DFF"/>
<path d="M27.4151 41.0329L6.41917 54.7538C5.4897 55.3513 4.36095 55.5551 3.28121 55.3204C2.20148 55.0857 1.25921 54.4316 0.661703 53.5022C0.0641909 52.5727 -0.139621 51.444 0.0951041 50.3642C0.329829 49.2845 0.983863 48.3422 1.91333 47.7447L22.9093 34.102C23.3644 33.8062 23.8733 33.6029 24.4069 33.5037C24.9406 33.4045 25.4886 33.4114 26.0196 33.524C26.5506 33.6366 27.0542 33.8526 27.5017 34.1599C27.9492 34.4671 28.3318 34.8595 28.6276 35.3145C28.9235 35.7696 29.1268 36.2785 29.226 36.8122C29.3252 37.3459 29.3183 37.8938 29.2057 38.4248C29.0931 38.9558 28.877 39.4595 28.5698 39.9069C28.2626 40.3544 27.8702 40.737 27.4151 41.0329Z" fill="#389BF3"/>
<path d="M78.8569 7.59883L78.6535 7.72399C78.1984 8.01985 77.6895 8.22317 77.1559 8.32236C76.6222 8.42154 76.0742 8.41464 75.5432 8.30204C75.0122 8.18945 74.5086 7.97338 74.0611 7.66615C73.6136 7.35892 73.231 6.96657 72.9352 6.51148C72.6393 6.05639 72.436 5.54749 72.3368 5.01382C72.2376 4.48016 72.2445 3.93218 72.3571 3.40119C72.4697 2.87019 72.6858 2.36657 72.993 1.91908C73.3002 1.47159 73.6926 1.08899 74.1477 0.793131L74.3511 0.667969C75.2702 0.0704573 76.389 -0.137475 77.4614 0.0899146C78.5338 0.317304 79.4719 0.961389 80.0694 1.88048C80.6669 2.79957 80.8749 3.91837 80.6475 4.99077C80.4201 6.06317 79.776 7.00132 78.8569 7.59883Z" fill="#FF9D23"/>
<path opacity="0.5" d="M82.5334 33.9767L51.1334 54.3938C50.2135 54.9221 49.1261 55.0778 48.0949 54.8287C47.0638 54.5797 46.1673 53.9448 45.59 53.0548C45.0128 52.1648 44.7986 51.0875 44.9916 50.0443C45.1846 49.0012 45.77 48.0718 46.6275 47.4473L78.0276 27.1084C78.9467 26.5109 80.0655 26.303 81.1379 26.5303C82.2103 26.7577 83.1484 27.4018 83.746 28.3209C84.3435 29.24 84.5514 30.3588 84.324 31.4312C84.0966 32.5036 83.4525 33.4417 82.5334 34.0393V33.9767Z" fill="#389BF3"/>
<path opacity="0.5" d="M40.5728 61.262L19.5769 74.9047C18.6578 75.5022 17.539 75.7101 16.4666 75.4827C15.3942 75.2554 14.456 74.6113 13.8585 73.6922C13.261 72.7731 13.0531 71.6543 13.2805 70.5819C13.5079 69.5095 14.1519 68.5713 15.071 67.9738L36.0201 54.3155C36.9399 53.7872 38.0273 53.6315 39.0585 53.8806C40.0896 54.1296 40.9861 54.7645 41.5634 55.6544C42.1407 56.5444 42.3548 57.6218 42.1619 58.6649C41.9689 59.708 41.3834 60.6375 40.5259 61.262H40.5728Z" fill="#AA7DFF"/>
<path opacity="0.5" d="M91.9988 27.8283L91.8111 27.9535C90.8912 28.4818 89.8038 28.6375 88.7727 28.3884C87.7415 28.1394 86.8451 27.5045 86.2678 26.6145C85.6905 25.7246 85.4763 24.6472 85.6693 23.6041C85.8623 22.5609 86.4478 21.6315 87.3053 21.007L87.493 20.8818C87.9484 20.5502 88.4665 20.3148 89.0159 20.1901C89.5652 20.0653 90.1342 20.0539 90.6881 20.1563C91.242 20.2588 91.7693 20.4731 92.2376 20.7861C92.706 21.0992 93.1056 21.5043 93.4122 21.9769C93.7187 22.4495 93.9258 22.9797 94.0206 23.5349C94.1155 24.0902 94.0962 24.659 93.964 25.2066C93.8317 25.7542 93.5892 26.2691 93.2514 26.7198C92.9135 27.1706 92.4873 27.5477 91.9988 27.8283Z" fill="#FF9D23"/>
<path d="M26.5859 93.4133L86.9141 65.5334" stroke="#732E54" stroke-width="5.25847" stroke-miterlimit="10" stroke-linecap="round"/>
<path d="M53.0107 33.1008H71.1123V93.1474H53.0107V33.1008Z" fill="white"/>
<path d="M80.9532 9.77319H99.0861V98.8731H80.9532V9.77319Z" fill="url(#paint0_linear_432_2121)"/>
<path d="M79.8425 10.9001H100.009V100H79.8425V10.9001Z" stroke="#732E54" stroke-width="5.25847" stroke-miterlimit="10"/>
<path d="M53.0577 35.9326H71.1593V98.5137H53.0577V35.9326Z" fill="url(#paint1_linear_432_2121)"/>
<path d="M51.9 34.5085H72.0668V99.9997H51.9V34.5085Z" stroke="#732E54" stroke-width="5.25847" stroke-miterlimit="10"/>
<path d="M24.6302 58.5085H42.8414V99.6556H24.6302V58.5085Z" fill="url(#paint2_linear_432_2121)"/>
<path d="M23.9733 58.8372H44.14V99.9842H23.9733V58.8372Z" stroke="#732E54" stroke-width="5.25847" stroke-miterlimit="10"/>
<path d="M99.2269 22.1332C104.671 22.1332 109.083 17.7203 109.083 12.2767C109.083 6.83308 104.671 2.42017 99.2269 2.42017C93.7833 2.42017 89.3704 6.83308 89.3704 12.2767C89.3704 17.7203 93.7833 22.1332 99.2269 22.1332Z" fill="white"/>
<path fill-rule="evenodd" clip-rule="evenodd" d="M109.381 12.6053C109.434 13.9317 109.218 15.2551 108.747 16.4961C108.276 17.7371 107.559 18.8702 106.639 19.8273C105.72 20.7845 104.616 21.546 103.395 22.0662C102.173 22.5863 100.86 22.8545 99.5322 22.8545C98.2048 22.8545 96.891 22.5863 95.6697 22.0662C94.4485 21.546 93.3449 20.7845 92.4251 19.8273C91.5054 18.8702 90.7884 17.7371 90.3173 16.4961C89.8462 15.2551 89.6306 13.9317 89.6835 12.6053C89.6782 11.7485 89.7941 10.8952 90.0277 10.0708C90.5896 12.1662 91.8271 14.0176 93.5484 15.3381C95.2696 16.6586 97.3784 17.3743 99.5478 17.3743C101.717 17.3743 103.826 16.6586 105.547 15.3381C107.269 14.0176 108.506 12.1662 109.068 10.0708C109.276 10.8996 109.381 11.7509 109.381 12.6053Z" fill="#CEC1BC"/>
<path d="M100.119 23.0407C105.562 23.0407 109.975 18.6278 109.975 13.1842C109.975 7.74055 105.562 3.32764 100.119 3.32764C94.6753 3.32764 90.2623 7.74055 90.2623 13.1842C90.2623 18.6278 94.6753 23.0407 100.119 23.0407Z" stroke="#732E54" stroke-width="5.25847" stroke-miterlimit="10"/>
<path d="M25.2249 68.099C30.6685 68.099 35.0815 63.6861 35.0815 58.2425C35.0815 52.7989 30.6685 48.386 25.2249 48.386C19.7813 48.386 15.3684 52.7989 15.3684 58.2425C15.3684 63.6861 19.7813 68.099 25.2249 68.099Z" fill="white"/>
<path fill-rule="evenodd" clip-rule="evenodd" d="M35.3941 58.5709C35.3941 61.185 34.3556 63.6921 32.5072 65.5405C30.6587 67.389 28.1516 68.4274 25.5375 68.4274C22.9234 68.4274 20.4164 67.389 18.5679 65.5405C16.7195 63.6921 15.681 61.185 15.681 58.5709C15.672 57.7127 15.7933 56.8581 16.0408 56.0364C16.5971 58.1347 17.8316 59.9903 19.552 61.3141C21.2725 62.6379 23.3824 63.3556 25.5532 63.3556C27.724 63.3556 29.8339 62.6379 31.5544 61.3141C33.2748 59.9903 34.5093 58.1347 35.0655 56.0364C35.2872 56.8629 35.3977 57.7152 35.3941 58.5709Z" fill="#CEC1BC"/>
<path d="M26.1323 68.9906C31.5759 68.9906 35.9888 64.5777 35.9888 59.1341C35.9888 53.6905 31.5759 49.2776 26.1323 49.2776C20.6887 49.2776 16.2758 53.6905 16.2758 59.1341C16.2758 64.5777 20.6887 68.9906 26.1323 68.9906Z" stroke="#732E54" stroke-width="5.25847" stroke-miterlimit="10"/>
<path opacity="0.3" d="M91.9363 94.4924H93.4539" stroke="white" stroke-width="2.62923" stroke-miterlimit="10" stroke-linecap="round"/>
<path d="M85.2087 85.0271V94.4925H88.6351" stroke="white" stroke-width="2.62923" stroke-miterlimit="10" stroke-linecap="round"/>
<path opacity="0.6" d="M85.2087 78.1433V79.9582" stroke="white" stroke-width="2.62923" stroke-miterlimit="10" stroke-linecap="round"/>
<path d="M85.2087 68.2087V73.2309" stroke="white" stroke-width="2.62923" stroke-miterlimit="10" stroke-linecap="round"/>
<defs>
<linearGradient id="paint0_linear_432_2121" x1="80.9532" y1="54.331" x2="99.0861" y2="54.331" gradientUnits="userSpaceOnUse">
<stop offset="0.04" stop-color="#F27B40"/>
<stop offset="1" stop-color="#EC697D"/>
</linearGradient>
<linearGradient id="paint1_linear_432_2121" x1="53.0577" y1="67.2232" x2="71.1593" y2="67.2232" gradientUnits="userSpaceOnUse">
<stop offset="0.04" stop-color="#F27B40"/>
<stop offset="1" stop-color="#EC697D"/>
</linearGradient>
<linearGradient id="paint2_linear_432_2121" x1="24.6302" y1="79.0821" x2="42.8414" y2="79.0821" gradientUnits="userSpaceOnUse">
<stop offset="0.04" stop-color="#F27B40"/>
<stop offset="1" stop-color="#EC697D"/>
</linearGradient>
</defs>
</svg>
