<svg width="100" height="101" viewBox="0 0 100 101" fill="none" xmlns="http://www.w3.org/2000/svg">
<path d="M90.625 81.75C90.625 82.5788 90.2958 83.3737 89.7097 83.9597C89.1237 84.5458 88.3288 84.875 87.5 84.875H12.5C11.6712 84.875 10.8763 84.5458 10.2903 83.9597C9.70424 83.3737 9.375 82.5788 9.375 81.75V19.25C9.375 18.4212 9.70424 17.6263 10.2903 17.0403C10.8763 16.4542 11.6712 16.125 12.5 16.125C13.3288 16.125 14.1237 16.4542 14.7097 17.0403C15.2958 17.6263 15.625 18.4212 15.625 19.25V61.707L35.2891 42.0391C35.5793 41.7485 35.9239 41.518 36.3033 41.3608C36.6827 41.2035 37.0893 41.1225 37.5 41.1225C37.9107 41.1225 38.3173 41.2035 38.6967 41.3608C39.0761 41.518 39.4207 41.7485 39.7109 42.0391L50 52.332L70.582 31.75H62.5C61.6712 31.75 60.8763 31.4208 60.2903 30.8347C59.7042 30.2487 59.375 29.4538 59.375 28.625C59.375 27.7962 59.7042 27.0013 60.2903 26.4153C60.8763 25.8292 61.6712 25.5 62.5 25.5H78.125C78.9538 25.5 79.7487 25.8292 80.3347 26.4153C80.9208 27.0013 81.25 27.7962 81.25 28.625V44.25C81.25 45.0788 80.9208 45.8737 80.3347 46.4597C79.7487 47.0458 78.9538 47.375 78.125 47.375C77.2962 47.375 76.5013 47.0458 75.9153 46.4597C75.3292 45.8737 75 45.0788 75 44.25V36.168L52.2109 58.9609C51.9207 59.2515 51.5761 59.482 51.1967 59.6393C50.8173 59.7965 50.4107 59.8775 50 59.8775C49.5893 59.8775 49.1827 59.7965 48.8033 59.6393C48.4239 59.482 48.0793 59.2515 47.7891 58.9609L37.5 48.668L15.625 70.543V78.625H87.5C88.3288 78.625 89.1237 78.9542 89.7097 79.5403C90.2958 80.1263 90.625 80.9212 90.625 81.75Z" fill="#273257"/>
</svg>
