<svg width="122" height="100" viewBox="0 0 122 100" fill="none" xmlns="http://www.w3.org/2000/svg">
<path d="M1.54395 23.9907H120.479V99.4314H22.2707C16.7736 99.4314 11.5017 97.2477 7.61466 93.3607C3.72765 89.4737 1.54395 84.2018 1.54395 78.7047V23.9907Z" fill="white"/>
<path d="M120.479 100H22.2707C16.6247 99.994 11.2116 97.7485 7.21925 93.7562C3.22691 89.7638 0.981363 84.3508 0.975342 78.7047V23.9908C0.975342 23.8399 1.03525 23.6953 1.14189 23.5887C1.24853 23.482 1.39316 23.4221 1.54398 23.4221H120.479C120.63 23.4221 120.775 23.482 120.882 23.5887C120.988 23.6953 121.048 23.8399 121.048 23.9908V99.4314C121.048 99.5822 120.988 99.7269 120.882 99.8335C120.775 99.9402 120.63 100 120.479 100ZM2.11261 24.5594V78.7047C2.11863 84.0491 4.24436 89.1729 8.02343 92.952C11.8025 96.7311 16.9263 98.8568 22.2707 98.8628H119.911V24.5594H2.11261Z" fill="#093F68"/>
<path d="M21.3154 0.568604V56.4198C16.2342 56.6535 11.4163 58.7474 7.77886 62.303C4.14145 65.8586 1.93852 70.6277 1.58944 75.7022H1.54395V14.9721C1.54395 11.1521 3.06145 7.48847 5.76263 4.78729C8.46381 2.08611 12.1274 0.568604 15.9475 0.568604H21.3154Z" fill="#68E1FD"/>
<path d="M1.58947 76.2709C1.43379 76.2727 1.28334 76.2147 1.1691 76.1089C1.05486 76.0032 0.985517 75.8576 0.975342 75.7023V14.9721C0.979857 11.0027 2.55872 7.19707 5.36557 4.39023C8.17241 1.58338 11.978 0.00451504 15.9475 0H21.3154C21.4662 0 21.6108 0.0599091 21.7175 0.166549C21.8241 0.273188 21.884 0.417823 21.884 0.568634V56.4199C21.884 56.5707 21.8241 56.7153 21.7175 56.822C21.6108 56.9286 21.4662 56.9885 21.3154 56.9885C16.3697 57.2085 11.6788 59.2443 8.14009 62.7064C4.60142 66.1685 2.46349 70.8138 2.13536 75.7534C2.12298 75.8914 2.0607 76.0201 1.96019 76.1153C1.85968 76.2106 1.72786 76.2659 1.58947 76.2709ZM15.9475 1.13727C12.2792 1.14028 8.76197 2.59885 6.16808 5.19274C3.57419 7.78662 2.11562 11.3038 2.11261 14.9721V70.2263C3.46279 66.267 5.95093 62.794 9.26552 60.2421C12.5801 57.6901 16.5739 56.1727 20.7468 55.8797V1.13727H15.9475Z" fill="#093F68"/>
<path d="M87.493 93.5347H57.4521C57.3012 93.5347 57.1566 93.4748 57.05 93.3681C56.9433 93.2615 56.8834 93.1169 56.8834 92.9661V69.5213C56.8834 69.3705 56.9433 69.2258 57.05 69.1192C57.1566 69.0125 57.3012 68.9526 57.4521 68.9526H87.493C87.6438 68.9526 87.7884 69.0125 87.8951 69.1192C88.0017 69.2258 88.0616 69.3705 88.0616 69.5213V92.9661C88.0616 93.1169 88.0017 93.2615 87.8951 93.3681C87.7884 93.4748 87.6438 93.5347 87.493 93.5347ZM58.0207 92.3974H86.9244V70.0899H58.0207V92.3974Z" fill="#DFEAEF"/>
<path d="M49.9688 40.2366C49.9596 39.9443 49.8535 39.6634 49.6672 39.438C49.4809 39.2126 49.2249 39.0554 48.9396 38.9913C48.4449 38.8833 47.9445 38.8036 47.4384 38.7297C47.3696 38.7229 47.3044 38.6953 47.2516 38.6506C47.1988 38.606 47.1608 38.5463 47.1427 38.4795C46.9949 38.0815 46.8243 37.6834 46.6537 37.2968C46.6234 37.2524 46.6072 37.1998 46.6072 37.1461C46.6072 37.0923 46.6234 37.0398 46.6537 36.9954C46.9608 36.5803 47.2678 36.1652 47.5465 35.733C47.7094 35.4901 47.7862 35.1995 47.7645 34.9078C47.7429 34.6161 47.6241 34.34 47.4271 34.1238C46.9721 33.6177 46.4774 33.1457 45.9941 32.6624C45.7569 32.393 45.4256 32.2246 45.0682 32.1918C44.7108 32.1591 44.3543 32.2644 44.0721 32.4861L42.9348 33.2822C42.8948 33.3193 42.844 33.3426 42.7898 33.3487C42.7355 33.3549 42.6808 33.3435 42.6335 33.3163C42.2127 33.1287 41.7805 32.9524 41.3484 32.7875C41.2959 32.7735 41.2491 32.7435 41.2145 32.7018C41.1799 32.66 41.1591 32.6085 41.155 32.5544C41.0811 32.0938 41.0072 31.6332 40.9219 31.1726C40.8765 30.8501 40.7186 30.5541 40.4762 30.3366C40.2338 30.1192 39.9224 29.9944 39.597 29.9841C38.8862 29.9841 38.1811 29.9841 37.4703 29.9841C37.1694 29.9908 36.8793 30.098 36.6464 30.2886C36.4135 30.4793 36.2511 30.7424 36.1852 31.0361C36.0714 31.5479 35.9918 32.071 35.9065 32.5942C35.9009 32.6478 35.8796 32.6985 35.8452 32.74C35.8107 32.7815 35.7648 32.8119 35.7132 32.8273C35.2981 32.9865 34.8887 33.1628 34.4849 33.3448C34.4438 33.3752 34.394 33.3917 34.3428 33.3917C34.2916 33.3917 34.2418 33.3752 34.2006 33.3448C33.7912 33.0434 33.3818 32.742 32.9553 32.4577C32.711 32.2919 32.4182 32.2125 32.1236 32.2321C31.8289 32.2516 31.5493 32.3691 31.329 32.5657C30.7604 33.0604 30.2657 33.5722 29.771 34.1067C29.5363 34.3443 29.3973 34.66 29.3805 34.9935C29.3637 35.327 29.4703 35.655 29.68 35.915C29.9529 36.313 30.2486 36.7054 30.5159 37.1034C30.5298 37.1368 30.537 37.1725 30.537 37.2086C30.537 37.2447 30.5298 37.2805 30.5159 37.3138C30.3453 37.763 30.169 38.2009 29.9813 38.6444C29.9444 38.7104 29.8832 38.7594 29.8108 38.7809C29.3559 38.8662 28.8953 38.9401 28.4347 39.014C28.1101 39.0486 27.8084 39.1974 27.5834 39.4338C27.3584 39.6703 27.2248 39.979 27.2064 40.3048V42.5225C27.2187 42.8103 27.3249 43.0861 27.5087 43.3079C27.6925 43.5297 27.9438 43.6852 28.2243 43.7508C28.7474 43.8702 29.2819 43.9498 29.8164 44.0408C29.8671 44.0462 29.9151 44.0663 29.9545 44.0986C29.9939 44.131 30.023 44.1741 30.0382 44.2227C30.2031 44.6435 30.3794 45.0586 30.5671 45.4737C30.5945 45.5129 30.6091 45.5595 30.6091 45.6074C30.6091 45.6552 30.5945 45.7018 30.5671 45.741C30.2827 46.122 29.9984 46.5029 29.7425 46.8782C29.5327 47.1534 29.4328 47.4968 29.4622 47.8415C29.4916 48.1863 29.6483 48.5078 29.9017 48.7434C30.3453 49.1926 30.7888 49.6418 31.2437 50.0853C31.4836 50.3485 31.8147 50.5104 32.1697 50.5378C32.5247 50.5653 32.8769 50.4564 33.1543 50.2332L34.2916 49.4087C34.329 49.3822 34.3737 49.368 34.4195 49.368C34.4654 49.368 34.5101 49.3822 34.5475 49.4087C34.9398 49.5736 35.3322 49.7442 35.7302 49.892C35.7916 49.9096 35.8459 49.946 35.8857 49.9959C35.9254 50.0458 35.9486 50.1069 35.952 50.1706C36.0202 50.6256 36.0942 51.0748 36.1738 51.5297C36.2152 51.8438 36.3641 52.1339 36.5953 52.3506C36.8265 52.5673 37.1257 52.6972 37.4418 52.7181C38.1867 52.7466 38.9317 52.7181 39.6766 52.7181C39.9689 52.7051 40.2487 52.5961 40.4728 52.408C40.6969 52.2199 40.8527 51.9631 40.9162 51.6775C41.0242 51.1771 41.0982 50.6654 41.1835 50.1593C41.1871 50.0992 41.2093 50.0418 41.247 49.995C41.2847 49.9481 41.336 49.9141 41.3938 49.8977C41.8089 49.7385 42.224 49.5622 42.6335 49.3859C42.6726 49.3585 42.7193 49.3438 42.7671 49.3438C42.8149 49.3438 42.8615 49.3585 42.9007 49.3859C43.2817 49.6646 43.6684 49.9546 44.038 50.2048C44.3045 50.4043 44.6323 50.5049 44.9649 50.4891C45.2724 50.4865 45.5674 50.3665 45.7894 50.1536C46.2784 49.693 46.7504 49.2153 47.2223 48.7434C47.4978 48.5026 47.6698 48.165 47.7026 47.8007C47.7354 47.4363 47.6265 47.0734 47.3986 46.7873C47.1314 46.412 46.8698 46.0367 46.5968 45.65C46.5694 45.6108 46.5548 45.5642 46.5548 45.5164C46.5548 45.4686 46.5694 45.4219 46.5968 45.3827C46.7788 44.9676 46.9551 44.5525 47.12 44.1317C47.1343 44.0784 47.1651 44.031 47.208 43.9963C47.2509 43.9616 47.3037 43.9413 47.3588 43.9384L48.7349 43.7166C49.0591 43.674 49.3578 43.5183 49.5783 43.277C49.7989 43.0356 49.9271 42.7241 49.9404 42.3974C49.9916 41.6866 49.9916 40.9588 49.9688 40.2366ZM38.5962 46.2357C37.6267 46.2334 36.6797 45.9438 35.8749 45.4033C35.0701 44.8628 34.4436 44.0958 34.0747 43.1993C33.7058 42.3028 33.611 41.317 33.8023 40.3667C33.9937 39.4163 34.4625 38.544 35.1496 37.8601C35.8367 37.1762 36.7112 36.7114 37.6624 36.5244C38.6137 36.3375 39.599 36.4369 40.4938 36.8099C41.3886 37.183 42.1527 37.813 42.6894 38.6203C43.2261 39.4277 43.5114 40.376 43.5092 41.3454C43.5084 41.9884 43.381 42.6249 43.1343 43.2186C42.8876 43.8123 42.5263 44.3516 42.0712 44.8057C41.616 45.2598 41.0758 45.6198 40.4816 45.8652C39.8873 46.1105 39.2505 46.2364 38.6075 46.2357H38.5962Z" stroke="#DFEAEF" stroke-width="1.75049" stroke-linecap="round" stroke-linejoin="round"/>
<path d="M97.899 83.8565H71.4291C71.2783 83.8565 71.1337 83.7965 71.027 83.6899C70.9204 83.5833 70.8605 83.4386 70.8605 83.2878V63.9827C70.8605 63.8319 70.9204 63.6873 71.027 63.5806C71.1337 63.474 71.2783 63.4141 71.4291 63.4141H97.899C98.0498 63.4141 98.1945 63.474 98.3011 63.5806C98.4078 63.6873 98.4677 63.8319 98.4677 63.9827V83.2878C98.4677 83.4386 98.4078 83.5833 98.3011 83.6899C98.1945 83.7965 98.0498 83.8565 97.899 83.8565ZM71.9977 82.7192H97.3304V64.5513H71.9977V82.7192Z" fill="#DFEAEF"/>
<path d="M111.455 34.6981H56.4967C56.3459 34.6981 56.2013 34.6382 56.0946 34.5315C55.988 34.4249 55.9281 34.2802 55.9281 34.1294C55.9281 33.9786 55.988 33.834 56.0946 33.7273C56.2013 33.6207 56.3459 33.5608 56.4967 33.5608H111.455C111.606 33.5608 111.751 33.6207 111.857 33.7273C111.964 33.834 112.024 33.9786 112.024 34.1294C112.024 34.2802 111.964 34.4249 111.857 34.5315C111.751 34.6382 111.606 34.6981 111.455 34.6981Z" fill="#DFEAEF"/>
<path d="M111.455 43.6255H56.4967C56.3459 43.6255 56.2013 43.5656 56.0946 43.459C55.988 43.3524 55.9281 43.2077 55.9281 43.0569C55.9281 42.9061 55.988 42.7615 56.0946 42.6548C56.2013 42.5482 56.3459 42.4883 56.4967 42.4883H111.455C111.606 42.4883 111.751 42.5482 111.857 42.6548C111.964 42.7615 112.024 42.9061 112.024 43.0569C112.024 43.2077 111.964 43.3524 111.857 43.459C111.751 43.5656 111.606 43.6255 111.455 43.6255Z" fill="#DFEAEF"/>
<path d="M67.9775 52.5477H56.4967C56.3459 52.5477 56.2013 52.4878 56.0946 52.3811C55.988 52.2745 55.9281 52.1298 55.9281 51.979C55.9281 51.8282 55.988 51.6836 56.0946 51.5769C56.2013 51.4703 56.3459 51.4104 56.4967 51.4104H67.9775C68.1283 51.4104 68.2729 51.4703 68.3795 51.5769C68.4862 51.6836 68.5461 51.8282 68.5461 51.979C68.5461 52.1298 68.4862 52.2745 68.3795 52.3811C68.2729 52.4878 68.1283 52.5477 67.9775 52.5477Z" fill="#DFEAEF"/>
<path d="M113.485 71.2043H106.184C106.033 71.2043 105.889 71.1444 105.782 71.0378C105.675 70.9312 105.615 70.7865 105.615 70.6357V63.9827C105.615 63.8319 105.675 63.6873 105.782 63.5806C105.889 63.474 106.033 63.4141 106.184 63.4141H113.485C113.636 63.4141 113.781 63.474 113.887 63.5806C113.994 63.6873 114.054 63.8319 114.054 63.9827V70.6357C114.054 70.7865 113.994 70.9312 113.887 71.0378C113.781 71.1444 113.636 71.2043 113.485 71.2043ZM106.753 70.0671H112.917V64.5513H106.753V70.0671Z" fill="#DFEAEF"/>
<path d="M113.485 82.9807H106.184C106.033 82.9807 105.889 82.9208 105.782 82.8142C105.675 82.7075 105.615 82.5629 105.615 82.4121V75.7591C105.615 75.6083 105.675 75.4636 105.782 75.357C105.889 75.2503 106.033 75.1904 106.184 75.1904H113.485C113.636 75.1904 113.781 75.2503 113.887 75.357C113.994 75.4636 114.054 75.6083 114.054 75.7591V82.4121C114.054 82.5629 113.994 82.7075 113.887 82.8142C113.781 82.9208 113.636 82.9807 113.485 82.9807ZM106.753 81.8434H112.917V76.3277H106.753V81.8434Z" fill="#DFEAEF"/>
<path d="M113.485 94.723H106.184C106.033 94.723 105.889 94.6631 105.782 94.5564C105.675 94.4498 105.615 94.3051 105.615 94.1543V87.4956C105.615 87.3448 105.675 87.2002 105.782 87.0936C105.889 86.9869 106.033 86.927 106.184 86.927H113.485C113.636 86.927 113.781 86.9869 113.887 87.0936C113.994 87.2002 114.054 87.3448 114.054 87.4956V94.1543C114.054 94.3051 113.994 94.4498 113.887 94.5564C113.781 94.6631 113.636 94.723 113.485 94.723ZM106.753 93.5857H112.917V88.0643H106.753V93.5857Z" fill="#DFEAEF"/>
<path d="M111.036 3.76487L112.951 5.54679C113.55 6.10465 113.903 6.87781 113.933 7.69618C113.962 8.51456 113.665 9.31111 113.107 9.9106L80.6767 44.7614L74.2494 38.7804L106.68 3.92958C107.237 3.33152 108.008 2.97839 108.824 2.94752C109.64 2.91665 110.436 3.21055 111.036 3.76487Z" fill="#68E1FD"/>
<path d="M80.6978 45.3314C80.5542 45.3309 80.416 45.2761 80.3112 45.1779L73.8742 39.1959C73.7643 39.0942 73.6989 38.9532 73.6923 38.8035C73.6896 38.7285 73.7017 38.6537 73.7281 38.5835C73.7544 38.5132 73.7945 38.4488 73.8458 38.3941L106.258 3.54252C106.92 2.83296 107.837 2.41478 108.806 2.37961C109.776 2.34444 110.721 2.69514 111.433 3.35487L113.343 5.13469C114.054 5.79609 114.473 6.71276 114.508 7.68313C114.544 8.6535 114.192 9.59811 113.531 10.3093L81.1186 45.1552C81.0645 45.212 80.9991 45.257 80.9267 45.2874C80.8543 45.3177 80.7763 45.3327 80.6978 45.3314ZM75.0627 38.7467L80.6694 43.961L112.706 9.52455C112.932 9.28294 113.109 8.99904 113.225 8.68915C113.341 8.37926 113.395 8.04948 113.383 7.71874C113.371 7.388 113.295 7.06281 113.157 6.76184C113.019 6.46087 112.824 6.19004 112.581 5.9649L110.665 4.18508C110.176 3.72974 109.527 3.48712 108.859 3.51058C108.192 3.53404 107.561 3.82165 107.105 4.31018L75.0627 38.7467Z" fill="#093F68"/>
<path d="M80.6979 44.7629L72.8849 49.1925L67.9775 51.9788L70.4056 46.8839L74.2609 38.7751L80.6979 44.7629Z" fill="#FFBC0E"/>
<path d="M67.9775 52.5474C67.8817 52.5471 67.7874 52.5226 67.7036 52.4762C67.6197 52.4297 67.549 52.3628 67.4979 52.2817C67.4468 52.2005 67.4171 52.1078 67.4115 52.0121C67.4059 51.9164 67.4246 51.8208 67.4658 51.7343L73.7208 38.5306C73.7591 38.4495 73.8161 38.3786 73.8872 38.3237C73.9582 38.2688 74.0412 38.2316 74.1294 38.2149C74.2175 38.1983 74.3084 38.2028 74.3945 38.228C74.4807 38.2532 74.5596 38.2984 74.6249 38.36L81.0618 44.3477C81.1271 44.4087 81.1771 44.4843 81.2078 44.5683C81.2384 44.6523 81.2488 44.7423 81.2381 44.831C81.2274 44.9194 81.1961 45.0041 81.1467 45.0781C81.0973 45.1522 81.0313 45.2137 80.9538 45.2575L68.2334 52.4735C68.1552 52.518 68.0675 52.5434 67.9775 52.5474ZM74.4372 39.719L69.2683 50.597L79.7426 44.6548L74.4372 39.719Z" fill="#093F68"/>
<path d="M72.8849 49.1924L67.9775 51.9787L70.4056 46.8838L72.8849 49.1924Z" fill="white"/>
<path d="M67.9775 52.5475C67.8817 52.5473 67.7874 52.5227 67.7036 52.4763C67.6197 52.4298 67.549 52.3629 67.4979 52.2818C67.4468 52.2006 67.4171 52.1079 67.4115 52.0122C67.4059 51.9165 67.4246 51.8209 67.4658 51.7344L69.8882 46.6167C69.927 46.536 69.9843 46.4656 70.0554 46.4113C70.1266 46.3569 70.2095 46.3201 70.2976 46.3039C70.3854 46.287 70.476 46.2911 70.5619 46.3158C70.6479 46.3405 70.7268 46.3851 70.7923 46.4461L73.2772 48.7547C73.3423 48.8157 73.3922 48.8911 73.4228 48.9748C73.4534 49.0586 73.4639 49.1484 73.4533 49.237C73.4428 49.3255 73.4116 49.4104 73.3623 49.4847C73.3129 49.5589 73.2468 49.6206 73.1692 49.6646L68.2562 52.4509C68.1734 52.507 68.0773 52.5404 67.9775 52.5475ZM70.5819 47.8279L69.2683 50.5971L71.9352 49.0845L70.5819 47.8279Z" fill="#093F68"/>
<path d="M37.6922 92.9661C39.812 92.9661 41.5304 91.6549 41.5304 90.0376C41.5304 88.4203 39.812 87.1091 37.6922 87.1091C35.5723 87.1091 33.8539 88.4203 33.8539 90.0376C33.8539 91.6549 35.5723 92.9661 37.6922 92.9661Z" fill="white"/>
<path d="M37.6978 93.5345C35.2641 93.5345 33.2909 91.9651 33.2909 90.0374C33.2909 88.1097 35.2641 86.5403 37.6978 86.5403C40.1316 86.5403 42.099 88.1097 42.099 90.0374C42.099 91.9651 40.1202 93.5345 37.6978 93.5345ZM37.6978 87.6776C35.8952 87.6776 34.4282 88.7352 34.4282 90.0374C34.4282 91.3396 35.8952 92.3972 37.6978 92.3972C39.5004 92.3972 40.9618 91.3396 40.9618 90.0374C40.9618 88.7352 39.4947 87.6776 37.6978 87.6776Z" fill="#DFEAEF"/>
<path d="M49.0704 69.8055C49.0652 67.9376 48.5999 66.0997 47.7158 64.4542C46.8316 62.8088 45.5557 61.4064 44.0009 60.3711C42.4461 59.3359 40.6603 58.6995 38.8011 58.5183C36.942 58.337 35.0668 58.6165 33.3413 59.3321C31.6159 60.0476 30.0932 61.1772 28.9079 62.6209C27.7226 64.0646 26.9112 65.7781 26.5453 67.6098C26.1795 69.4416 26.2705 71.3353 26.8102 73.1236C27.35 74.9118 28.3219 76.5396 29.6402 77.8631C31.0933 79.3519 32.1016 81.2169 32.5516 83.248L32.6426 83.6347H42.7358L42.8495 83.1627C43.356 81.1004 44.4089 79.2127 45.8974 77.6982C47.9398 75.5791 49.0777 72.7486 49.0704 69.8055Z" fill="white"/>
<path d="M42.7359 84.1749H32.6426C32.5119 84.1783 32.3841 84.1367 32.2805 84.057C32.1769 83.9772 32.104 83.8642 32.074 83.737L31.983 83.3446C31.5575 81.4155 30.6024 79.6432 29.2251 78.2269C27.5629 76.5639 26.4286 74.4471 25.9646 72.142C25.5006 69.8369 25.7274 67.4461 26.6166 65.2694C27.5058 63.0927 29.0179 61.2269 30.9632 59.9061C32.9085 58.5852 35.2004 57.8681 37.5517 57.8446C39.9029 57.8211 42.2087 58.4922 44.18 59.7739C46.1514 61.0556 47.7004 62.8907 48.633 65.0492C49.5656 67.2077 49.8402 69.5935 49.4223 71.9074C49.0045 74.2213 47.9128 76.3604 46.2841 78.0563C44.8699 79.5026 43.8686 81.3011 43.3841 83.265L43.2761 83.737C43.2472 83.8595 43.1784 83.9689 43.0807 84.0481C42.9829 84.1274 42.8617 84.1719 42.7359 84.1749ZM33.0691 83.0376H42.2639C42.8003 80.8672 43.9144 78.8825 45.488 77.2944C46.9603 75.7595 47.9467 73.8242 48.3238 71.7311C48.7008 69.638 48.4518 67.4801 47.6077 65.528C46.7637 63.5758 45.3622 61.9162 43.579 60.7571C41.7958 59.598 39.7102 58.991 37.5835 59.0121C35.4568 59.0332 33.3836 59.6816 31.6238 60.8759C29.864 62.0703 28.4958 63.7574 27.6908 65.726C26.8857 67.6945 26.6796 69.8569 27.0982 71.9421C27.5168 74.0273 28.5415 75.9426 30.0439 77.4479C31.5577 78.9931 32.6128 80.9282 33.0918 83.0376H33.0691Z" fill="#DFEAEF"/>
<path d="M42.4173 83.6062H32.9666C32.3857 83.6062 31.9147 84.0772 31.9147 84.6582V84.8856C31.9147 85.4666 32.3857 85.9376 32.9666 85.9376H42.4173C42.9983 85.9376 43.4693 85.4666 43.4693 84.8856V84.6582C43.4693 84.0772 42.9983 83.6062 42.4173 83.6062Z" fill="white"/>
<path d="M42.4174 86.5121H32.961C32.5322 86.5106 32.1214 86.3392 31.8187 86.0354C31.516 85.7317 31.3461 85.3203 31.3461 84.8915V84.6868C31.3461 84.2579 31.516 83.8466 31.8187 83.5428C32.1214 83.2391 32.5322 83.0677 32.961 83.0662H42.4174C42.8467 83.0677 43.2581 83.2389 43.5617 83.5425C43.8653 83.8461 44.0365 84.2574 44.038 84.6868V84.9199C44.0291 85.3443 43.8546 85.7484 43.5518 86.0459C43.249 86.3434 42.8419 86.5107 42.4174 86.5121ZM32.961 84.175C32.8338 84.1765 32.7123 84.2281 32.6229 84.3186C32.5335 84.409 32.4833 84.5311 32.4833 84.6583V84.8915C32.4833 85.0187 32.5335 85.1408 32.6229 85.2313C32.7123 85.3217 32.8338 85.3733 32.961 85.3748H42.4174C42.5456 85.3748 42.6685 85.3239 42.7592 85.2333C42.8498 85.1426 42.9007 85.0197 42.9007 84.8915V84.6868C42.9007 84.5586 42.8498 84.4356 42.7592 84.345C42.6685 84.2544 42.5456 84.2034 42.4174 84.2034L32.961 84.175Z" fill="#DFEAEF"/>
<path d="M42.4173 85.9434H32.9666C32.3857 85.9434 31.9147 86.4143 31.9147 86.9953V87.2228C31.9147 87.8038 32.3857 88.2748 32.9666 88.2748H42.4173C42.9983 88.2748 43.4693 87.8038 43.4693 87.2228V86.9953C43.4693 86.4143 42.9983 85.9434 42.4173 85.9434Z" fill="white"/>
<path d="M42.4174 88.8434H32.961C32.5327 88.8434 32.1219 88.6733 31.8191 88.3704C31.5162 88.0676 31.3461 87.6568 31.3461 87.2285V86.9897C31.3461 86.5614 31.5162 86.1506 31.8191 85.8478C32.1219 85.5449 32.5327 85.3748 32.961 85.3748H42.4174C42.8462 85.3748 43.2575 85.5447 43.5613 85.8474C43.8651 86.1501 44.0365 86.5608 44.038 86.9897V87.2285C44.0365 87.6573 43.8651 88.0681 43.5613 88.3708C43.2575 88.6735 42.8462 88.8434 42.4174 88.8434ZM32.961 86.512C32.8348 86.5135 32.7141 86.5643 32.6249 86.6536C32.5356 86.7428 32.4848 86.8635 32.4833 86.9897V87.2285C32.4848 87.3547 32.5356 87.4754 32.6249 87.5646C32.7141 87.6539 32.8348 87.7047 32.961 87.7062H42.4174C42.5446 87.7062 42.6667 87.656 42.7572 87.5666C42.8476 87.4772 42.8992 87.3557 42.9007 87.2285V86.9897C42.8992 86.8625 42.8476 86.741 42.7572 86.6516C42.6667 86.5622 42.5446 86.512 42.4174 86.512H32.961Z" fill="#DFEAEF"/>
<path d="M42.4173 88.2747H32.9666C32.3857 88.2747 31.9147 88.7456 31.9147 89.3266V89.5541C31.9147 90.1351 32.3857 90.6061 32.9666 90.6061H42.4173C42.9983 90.6061 43.4693 90.1351 43.4693 89.5541V89.3266C43.4693 88.7456 42.9983 88.2747 42.4173 88.2747Z" fill="white"/>
<path d="M42.4174 91.1804H32.961C32.5322 91.1789 32.1214 91.0075 31.8187 90.7037C31.516 90.4 31.3461 89.9886 31.3461 89.5598V89.3267C31.3461 88.8978 31.516 88.4865 31.8187 88.1827C32.1214 87.879 32.5322 87.7076 32.961 87.7061H42.4174C42.8467 87.7076 43.2581 87.8788 43.5617 88.1824C43.8653 88.486 44.0365 88.8973 44.038 89.3267V89.5598C44.0365 89.9892 43.8653 90.4005 43.5617 90.7041C43.2581 91.0077 42.8467 91.1789 42.4174 91.1804ZM32.961 88.8433C32.8338 88.8448 32.7123 88.8964 32.6229 88.9869C32.5335 89.0774 32.4833 89.1995 32.4833 89.3267V89.5598C32.4833 89.687 32.5335 89.8091 32.6229 89.8996C32.7123 89.9901 32.8338 90.0416 32.961 90.0431H42.4174C42.5456 90.0431 42.6685 89.9922 42.7592 89.9016C42.8498 89.8109 42.9007 89.688 42.9007 89.5598V89.3267C42.9007 89.1985 42.8498 89.0755 42.7592 88.9849C42.6685 88.8942 42.5456 88.8433 42.4174 88.8433H32.961Z" fill="#DFEAEF"/>
<path d="M35.7645 82.5315L33.8539 68.3555L37.9026 72.7624L41.9512 67.3604L40.1998 82.5315" fill="white"/>
<path d="M35.7644 83.1001C35.6256 83.1013 35.4911 83.0517 35.3864 82.9605C35.2816 82.8694 35.2138 82.7431 35.1958 82.6054L33.2852 68.4294C33.2736 68.3134 33.2979 68.1966 33.3548 68.0949C33.4118 67.9932 33.4986 67.9115 33.6036 67.8607C33.7133 67.8075 33.8371 67.791 33.9569 67.8135C34.0767 67.836 34.1861 67.8964 34.2689 67.9858L37.8513 71.8924L41.4906 67.0362C41.5654 66.9362 41.6712 66.8636 41.7914 66.8297C41.9117 66.7958 42.0398 66.8024 42.1559 66.8486C42.2722 66.8953 42.3699 66.9792 42.4337 67.0872C42.4974 67.1951 42.5237 67.3212 42.5084 67.4456L40.757 82.6168C40.7397 82.7676 40.6631 82.9054 40.5442 82.9997C40.4253 83.0941 40.2738 83.1374 40.123 83.12C39.9722 83.1027 39.8344 83.0262 39.7401 82.9073C39.6457 82.7884 39.6024 82.6368 39.6198 82.486L41.1266 69.4074L38.3403 73.1263C38.2904 73.1936 38.2262 73.249 38.1524 73.2886C38.0785 73.3282 37.9969 73.351 37.9132 73.3553C37.8295 73.3596 37.7459 73.3454 37.6684 73.3137C37.5908 73.282 37.5213 73.2335 37.4646 73.1718L34.6215 70.0955L36.2876 82.4803C36.3069 82.6296 36.2663 82.7804 36.1747 82.8998C36.083 83.0192 35.9477 83.0974 35.7985 83.1172L35.7644 83.1001Z" fill="#DFEAEF"/>
</svg>
