<svg width="106" height="100" viewBox="0 0 106 100" fill="none" xmlns="http://www.w3.org/2000/svg">
<path d="M74.0476 47.5182H63.7963L68.9191 29.5344L74.0476 47.5182Z" fill="#70CC40"/>
<path d="M74.0475 48.0854H63.7906C63.7034 48.0845 63.6177 48.0636 63.54 48.0242C63.4623 47.9849 63.3946 47.9282 63.3424 47.8585C63.2894 47.7891 63.2532 47.7085 63.2365 47.6229C63.2198 47.5373 63.223 47.449 63.2459 47.3649L68.3517 29.3811C68.3861 29.2633 68.4578 29.1598 68.556 29.0861C68.6542 29.0125 68.7736 28.9727 68.8964 28.9727C69.0191 28.9727 69.1385 29.0125 69.2367 29.0861C69.3349 29.1598 69.4066 29.2633 69.441 29.3811L74.5468 47.3649C74.5697 47.449 74.573 47.5373 74.5562 47.6229C74.5395 47.7085 74.5033 47.7891 74.4503 47.8585C74.4029 47.9224 74.3425 47.9757 74.2731 48.0148C74.2037 48.0539 74.1269 48.0779 74.0475 48.0854ZM64.5451 46.9508H73.293L68.9191 31.6333L64.5451 46.9508Z" fill="#093F68"/>
<path d="M95.9685 47.5182H85.7115L90.84 29.5344L95.9685 47.5182Z" fill="#70CC40"/>
<path d="M95.9685 48.0854H85.7172C85.6278 48.0887 85.5389 48.0709 85.4578 48.0334C85.3767 47.9958 85.3055 47.9397 85.2502 47.8694C85.1949 47.7992 85.157 47.7169 85.1396 47.6292C85.1221 47.5415 85.1256 47.4509 85.1498 47.3649L90.2556 29.3811C90.29 29.2633 90.3617 29.1598 90.4599 29.0861C90.5581 29.0125 90.6775 28.9727 90.8003 28.9727C90.923 28.9727 91.0424 29.0125 91.1406 29.0861C91.2388 29.1598 91.3105 29.2633 91.3449 29.3811L96.4507 47.3649C96.4744 47.4486 96.4786 47.5367 96.4628 47.6223C96.4471 47.7078 96.4119 47.7887 96.3599 47.8585C96.3137 47.9211 96.2551 47.9736 96.1878 48.0126C96.1205 48.0517 96.0458 48.0764 95.9685 48.0854ZM86.466 46.9508H95.2139L90.84 31.6333L86.466 46.9508Z" fill="#093F68"/>
<path d="M47.5599 19.7876L69.5432 47.5178H19.546L41.5293 19.7876C41.8901 19.3339 42.3486 18.9674 42.8707 18.7155C43.3927 18.4636 43.9649 18.3328 44.5446 18.3328C45.1243 18.3328 45.6965 18.4636 46.2186 18.7155C46.7406 18.9674 47.1991 19.3339 47.5599 19.7876Z" fill="#AD7972"/>
<path d="M69.5431 48.0852H19.5459C19.4396 48.0855 19.3353 48.0558 19.2451 47.9996C19.1548 47.9434 19.0821 47.863 19.0353 47.7676C18.9888 47.6711 18.9704 47.5635 18.9825 47.457C18.9945 47.3506 19.0365 47.2498 19.1034 47.1662L41.0811 19.436C41.4948 18.914 42.0213 18.4922 42.621 18.2023C43.2208 17.9123 43.8783 17.7617 44.5445 17.7617C45.2106 17.7617 45.8682 17.9123 46.4679 18.2023C47.0677 18.4922 47.5941 18.914 48.0079 19.436L69.9856 47.1662C70.0525 47.2498 70.0944 47.3506 70.1065 47.457C70.1185 47.5635 70.1002 47.6711 70.0536 47.7676C70.0069 47.863 69.9342 47.9434 69.8439 47.9996C69.7536 48.0558 69.6494 48.0855 69.5431 48.0852ZM20.7202 46.9506H68.3744L47.1172 20.1452C46.8109 19.7558 46.4202 19.441 45.9746 19.2245C45.5289 19.0081 45.0399 18.8956 44.5445 18.8956C44.049 18.8956 43.5601 19.0081 43.1144 19.2245C42.6688 19.441 42.2781 19.7558 41.9717 20.1452L20.7202 46.9506Z" fill="#093F68"/>
<path d="M26.8756 25.1319L44.6267 47.518H3.09387L20.8621 25.1319C21.2224 24.6803 21.6797 24.3157 22.2003 24.0651C22.7208 23.8145 23.2911 23.6843 23.8688 23.6843C24.4465 23.6843 25.0168 23.8145 25.5374 24.0651C26.0579 24.3157 26.5153 24.6803 26.8756 25.1319Z" fill="#E28362"/>
<path d="M44.6267 48.0852H3.09388C2.98756 48.0854 2.88331 48.0557 2.79303 47.9995C2.70276 47.9434 2.63008 47.863 2.5833 47.7675C2.53673 47.671 2.51841 47.5634 2.53046 47.457C2.5425 47.3506 2.58443 47.2497 2.65138 47.1661L20.3969 24.78C20.8107 24.2579 21.3371 23.8362 21.9369 23.5462C22.5366 23.2563 23.1942 23.1057 23.8603 23.1057C24.5265 23.1057 25.184 23.2563 25.7838 23.5462C26.3835 23.8362 26.91 24.2579 27.3238 24.78L45.0693 47.1661C45.1352 47.2496 45.1763 47.3499 45.188 47.4556C45.1997 47.5613 45.1814 47.6681 45.1353 47.764C45.0892 47.8598 45.017 47.9407 44.9271 47.9975C44.8372 48.0543 44.7331 48.0847 44.6267 48.0852ZM4.26822 46.9505H43.4524L26.4331 25.4835C26.1255 25.096 25.7344 24.783 25.2889 24.5678C24.8434 24.3527 24.355 24.2409 23.8603 24.2409C23.3656 24.2409 22.8773 24.3527 22.4318 24.5678C21.9863 24.783 21.5951 25.096 21.2876 25.4835L4.26822 46.9505Z" fill="#093F68"/>
<path d="M104.546 47.5178C104.546 56.9479 101.977 66.1998 97.116 74.2802C92.2546 82.3606 85.284 88.9643 76.9528 93.3821C68.6216 97.8 59.2444 99.8652 49.8281 99.3559C40.4118 98.8467 31.312 95.7822 23.5058 90.4917C17.1544 86.1909 11.8363 80.5346 7.93477 73.9304C4.03327 67.3262 1.64559 59.9386 0.943844 52.3003C0.792561 50.7231 0.716919 49.129 0.716919 47.5178H104.546Z" fill="#68E1FD"/>
<path d="M52.6316 100C39.5476 100.004 26.9343 95.1186 17.2666 86.3022C7.59903 77.4858 1.57499 65.3749 0.376525 52.3459C0.229024 50.7631 0.155273 49.1349 0.155273 47.5124C0.155273 47.3619 0.215043 47.2176 0.321435 47.1112C0.427826 47.0048 0.572125 46.9451 0.722585 46.9451H104.541C104.691 46.9451 104.835 47.0048 104.942 47.1112C105.048 47.2176 105.108 47.3619 105.108 47.5124C105.115 54.4063 103.763 61.234 101.129 67.6047C98.4944 73.9755 94.6295 79.7641 89.7553 84.6394C84.8811 89.5146 79.0932 93.3808 72.7231 96.0166C66.3529 98.6524 59.5255 100.006 52.6316 100ZM1.2899 48.0854C1.2899 49.4866 1.38066 50.8822 1.50547 52.2494C2.70385 65.3626 8.89479 77.5141 18.7986 86.192C28.7024 94.87 41.5618 99.4109 54.7188 98.8763C67.8758 98.3416 80.3243 92.7722 89.4913 83.3192C98.6583 73.8663 103.843 61.2525 103.973 48.0854H1.2899Z" fill="#093F68"/>
<path d="M52.2118 70.2332C53.5053 71.8387 55.7972 72.128 57.8169 72.5478C60.2859 73.0607 62.6671 73.9302 64.8856 75.1291C66.0202 75.7418 67.2229 76.6325 67.291 77.9203C67.3874 79.6222 65.521 80.6434 64.1764 81.6929C61.6235 83.6955 60.3868 87.0824 60.5286 90.3217C60.7337 93.1883 61.6884 95.9507 63.2971 98.3321C70.7872 96.7555 77.8365 93.5438 83.9413 88.9267C90.0462 84.3095 95.0558 78.4009 98.6122 71.6231C97.8102 71.5024 97.0291 71.2694 96.2919 70.931C92.3945 69.1043 90.8287 65.1331 87.7822 62.3703C83.5728 58.5579 77.304 58.3991 71.6309 58.5579C66.5251 58.6884 61.2661 58.9324 56.6198 61.0541C54.8328 61.871 53.1082 63.0113 52.0813 64.6962C51.0545 66.3812 50.9694 68.7071 52.2118 70.2332Z" fill="#70CC40"/>
<path d="M63.3027 98.8993C63.2068 98.9001 63.1123 98.8766 63.028 98.831C62.9437 98.7853 62.8723 98.7191 62.8205 98.6384C61.1536 96.1775 60.1743 93.3161 59.9839 90.3499C59.8251 86.7305 61.3058 83.2415 63.8473 81.273L64.5395 80.7567C65.6741 79.9398 66.8087 79.1002 66.7463 77.9826C66.7009 77.1656 66.0088 76.4054 64.6359 75.6566C62.4633 74.4842 60.1319 73.6338 57.7147 73.132L57.0566 73.0016C55.1902 72.6328 53.0854 72.213 51.7863 70.6189C50.4815 69.019 50.4134 66.4718 51.6274 64.4352C52.5635 62.8694 54.1236 61.5986 56.3985 60.5661C61.0278 58.4557 66.2471 58.1607 71.6365 58.0189C77.3607 57.8657 83.8224 58.0189 88.185 61.99C89.3112 63.074 90.3401 64.2548 91.2598 65.5187C92.7916 67.5043 94.2439 69.3764 96.5472 70.46C97.2398 70.7756 97.973 70.9933 98.7256 71.1067C98.8139 71.1215 98.8975 71.157 98.9695 71.2102C99.0415 71.2634 99.0998 71.333 99.1398 71.4131C99.1806 71.493 99.2019 71.5815 99.2019 71.6712C99.2019 71.761 99.1806 71.8494 99.1398 71.9293C95.5512 78.7875 90.4846 84.7633 84.3058 89.4253C78.127 94.0874 70.9902 97.3194 63.4105 98.888C63.3752 98.8966 63.339 98.9004 63.3027 98.8993ZM74.0136 59.0911C73.2193 59.0911 72.4251 59.0911 71.6479 59.1251C66.179 59.267 61.2888 59.5449 56.8524 61.5702C54.793 62.512 53.3975 63.6296 52.5805 64.9741C51.6104 66.608 51.6388 68.6162 52.6486 69.8587C53.6811 71.1351 55.4852 71.4925 57.2608 71.8442L57.9303 71.9747C60.4564 72.5125 62.891 73.4145 65.1578 74.6524C66.9108 75.6055 67.7958 76.6721 67.8582 77.9145C67.9547 79.6505 66.4853 80.7227 65.1975 81.6644C64.9649 81.8346 64.738 81.9991 64.5281 82.1636C62.2589 83.9337 60.954 87.0595 61.0959 90.3216C61.2773 92.9508 62.1288 95.4897 63.5693 97.6966C70.7816 96.1377 77.5713 93.0368 83.4722 88.6067C89.3732 84.1766 94.2458 78.5221 97.7555 72.0315C97.1703 71.9011 96.6 71.711 96.0536 71.4642C93.5007 70.2671 91.9009 68.1964 90.3805 66.1938C89.5008 64.975 88.5156 63.836 87.4361 62.79C83.9302 59.647 78.8584 59.0911 74.0136 59.0911Z" fill="#093F68"/>
<path d="M31.9701 74.2838L25.2418 77.7614C24.1526 78.3287 23.0123 78.9301 22.3031 79.9456C21.594 80.9611 21.4919 82.4928 22.4052 83.3494C22.9726 83.8657 23.8292 83.9962 24.4589 84.4841C25.3723 85.1932 25.5935 86.5434 25.2531 87.6497C24.8738 88.718 24.2791 89.6969 23.5058 90.5259C17.1544 86.2252 11.8363 80.5688 7.93477 73.9646C4.03327 67.3604 1.64559 59.9729 0.943848 52.3345C5.21003 52.0736 9.78256 52.9302 12.0178 56.0674C15.1947 60.5379 15.7053 67.1243 22.9669 66.9371C25.5652 66.8747 27.9479 65.5529 30.5178 65.1161C33.0877 64.6792 36.3044 65.6834 36.8036 68.2306C37.3142 70.9423 34.4776 73.0074 31.9701 74.2838Z" fill="#70CC40"/>
<path d="M23.5058 91.0591C23.3926 91.0593 23.282 91.0257 23.1881 90.9626C16.7667 86.6146 11.3899 80.8961 7.44524 74.2193C3.50059 67.5426 1.08633 60.0738 0.376481 52.3514C0.369978 52.2759 0.378676 52.1998 0.402061 52.1277C0.425447 52.0556 0.463044 51.9889 0.512635 51.9316C0.561423 51.8742 0.621169 51.827 0.688379 51.7929C0.755588 51.7588 0.828916 51.7385 0.904081 51.733C4.03564 51.5402 9.70308 51.8068 12.4772 55.7042C13.3206 56.9661 14.0605 58.2942 14.6897 59.6754C16.4371 63.2495 17.9461 66.3413 22.6321 66.3413H22.9214C24.3801 66.2342 25.8154 65.915 27.1819 65.3939C28.2309 65.0321 29.3039 64.744 30.3929 64.5316C33.3032 64.0437 36.7809 65.2691 37.3311 68.0943C37.8077 70.5394 36.0831 72.7973 32.197 74.7942L25.4743 78.2719C24.4475 78.8108 23.381 79.3668 22.7399 80.2745C22.1726 81.046 22.0761 82.2884 22.7399 82.9125C23.0186 83.1269 23.3285 83.2971 23.6589 83.4174C24.044 83.5609 24.4099 83.7514 24.7482 83.9847C25.9282 84.8981 26.0984 86.5376 25.7523 87.7573C25.3526 88.8992 24.721 89.9461 23.8972 90.8321C23.851 90.8948 23.7924 90.9473 23.7251 90.9863C23.6577 91.0254 23.5831 91.0501 23.5058 91.0591ZM1.57351 52.8393C2.34099 60.1962 4.68961 67.3003 8.45848 73.665C12.2273 80.0297 17.3274 85.5046 23.4093 89.7145C23.9905 89.0512 24.4358 88.2802 24.7198 87.4453C24.9581 86.617 24.873 85.4654 24.1185 84.881C23.853 84.7009 23.5674 84.5524 23.2675 84.4385C22.8237 84.2718 22.4099 84.0343 22.0421 83.7351C20.8564 82.6515 21.0153 80.7851 21.8549 79.5994C22.6945 78.4137 23.8972 77.8123 24.9921 77.245L31.7204 73.7617C35.1243 72.0201 36.6277 70.182 36.2589 68.2872C35.8561 66.1995 33.0196 65.2294 30.6255 65.6265C29.5911 65.8273 28.5728 66.1041 27.5791 66.4548C26.1066 67.0049 24.563 67.3411 22.9952 67.4532C17.3221 67.6007 15.4783 63.8168 13.6913 60.1576C13.0878 58.8318 12.3782 57.5569 11.5695 56.3453C9.83356 53.9399 6.21412 52.6804 1.57351 52.8393Z" fill="#093F68"/>
<path d="M40.2755 86.6681C41.1979 87.5859 42.2467 88.3672 43.3901 88.9884C44.095 89.2988 44.7491 89.7139 45.3303 90.2194C45.6226 90.4722 45.8327 90.8065 45.9338 91.1795C46.0348 91.5524 46.0222 91.9471 45.8976 92.3128C45.7436 92.5908 45.522 92.8254 45.2532 92.995C44.9845 93.1645 44.6774 93.2636 44.3602 93.2829C43.7272 93.3077 43.0946 93.2272 42.4881 93.0447C39.4813 92.3015 36.1625 91.3427 34.5457 88.699C33.7004 87.3148 33.7685 85.108 35.4704 84.3364C37.3993 83.4571 39.0445 85.4313 40.2755 86.6681Z" fill="#70CC40"/>
<path d="M44.0311 93.8614C43.4552 93.8407 42.8838 93.7512 42.3292 93.5948C39.0615 92.7892 35.7314 91.7737 34.0351 88.9939C33.7374 88.5018 33.5441 87.9538 33.467 87.3838C33.3899 86.8139 33.4307 86.2343 33.5869 85.6808C33.7061 85.2706 33.9136 84.8915 34.1949 84.57C34.4762 84.2486 34.8244 83.9926 35.2151 83.82C37.3312 82.8612 39.0501 84.6142 40.3209 85.8963C40.4457 86.0268 40.5705 86.1516 40.6897 86.2651C41.5717 87.1467 42.5768 87.8957 43.6737 88.489L44.0368 88.6818C44.6605 88.9677 45.235 89.3507 45.7387 89.8165C46.1079 90.1551 46.3677 90.5962 46.485 91.0833C46.6022 91.5704 46.5715 92.0814 46.3968 92.5509C46.2025 92.9183 45.9177 93.2299 45.5692 93.4563C45.2207 93.6826 44.8202 93.8162 44.4055 93.8444L44.0311 93.8614ZM36.4348 84.6823C36.176 84.6857 35.9208 84.7437 35.686 84.8525C35.4427 84.9605 35.2261 85.1206 35.0516 85.3216C34.8771 85.5226 34.7489 85.7595 34.6762 86.0155C34.5681 86.4156 34.5421 86.8334 34.5996 87.2438C34.6571 87.6543 34.797 88.0489 35.0109 88.4039C36.4802 90.8149 39.5494 91.7453 42.6015 92.4942C43.1523 92.6634 43.7277 92.7382 44.3034 92.7154C44.5225 92.7077 44.7361 92.6449 44.9244 92.5329C45.1128 92.4208 45.27 92.2632 45.3813 92.0744C45.4539 91.8154 45.4519 91.5412 45.3756 91.2833C45.2994 91.0254 45.1519 90.7942 44.9502 90.6164C44.5248 90.2339 44.0425 89.92 43.5205 89.686L43.1461 89.4874C41.9529 88.8435 40.8598 88.0294 39.9011 87.0707C39.7763 86.9515 39.6515 86.8211 39.521 86.6906C38.3977 85.5673 37.439 84.6823 36.4348 84.6823Z" fill="#093F68"/>
<path d="M63.7906 47.4671C64.5394 45.3397 64.0856 42.123 61.3398 41.8904C60.2037 41.8502 59.09 42.214 58.1969 42.9173C58.191 42.4624 58.0659 42.0169 57.8338 41.6256C57.6018 41.2342 57.2711 40.9106 56.8748 40.6872C56.4785 40.4638 56.0305 40.3483 55.5755 40.3524C55.1206 40.3565 54.6747 40.4799 54.2824 40.7104C53.7889 40.9998 53.5676 41.465 53.1478 41.8451C52.6202 42.3103 52.8925 42.2195 52.2231 42.0379C51.2586 41.7827 50.5609 41.4252 49.534 41.7656C48.9406 41.9682 48.4147 42.3307 48.0143 42.8132C47.6138 43.2958 47.3545 43.8795 47.2648 44.5001C46.8453 44.3163 46.3863 44.2412 45.9302 44.2819C45.474 44.3226 45.0355 44.4776 44.6551 44.7327C43.9048 45.2544 43.3153 45.9756 42.9532 46.8147C42.8437 47.0331 42.7489 47.2587 42.6696 47.4898L63.7906 47.4671Z" fill="#70CC40"/>
<path d="M63.7907 48.0342H42.6753C42.5843 48.0342 42.4945 48.0122 42.4137 47.9701C42.3329 47.9281 42.2635 47.8672 42.2112 47.7927C42.1589 47.7181 42.1253 47.6321 42.1132 47.5418C42.1012 47.4515 42.1111 47.3596 42.1421 47.274C42.2286 47.0257 42.3309 46.7831 42.4484 46.5478C42.8592 45.6077 43.528 44.8032 44.3773 44.2275C45.1166 43.747 46.0135 43.5721 46.8791 43.7396C47.0682 43.1531 47.3911 42.6187 47.8224 42.1786C48.2536 41.7384 48.7814 41.4047 49.364 41.2038C50.1948 40.9571 51.0846 40.9991 51.8885 41.3229L52.3764 41.4704L52.626 41.5385L52.7848 41.3966C52.9172 41.2751 53.0387 41.1422 53.1479 40.9995C53.3833 40.6921 53.6714 40.4289 53.9989 40.2223C54.4078 39.9819 54.8655 39.8366 55.3382 39.7973C55.8109 39.7579 56.2864 39.8255 56.7294 39.9949C57.1725 40.1644 57.5716 40.4314 57.8974 40.7762C58.2231 41.121 58.4671 41.5347 58.6111 41.9866C59.4531 41.4989 60.4194 41.2682 61.391 41.3229C61.9101 41.3539 62.4144 41.508 62.8622 41.7723C63.31 42.0367 63.6886 42.4038 63.9665 42.8433C64.8856 44.2616 64.8062 46.2812 64.324 47.6541C64.2853 47.7648 64.2132 47.8608 64.1177 47.9289C64.0222 47.9969 63.9079 48.0337 63.7907 48.0342ZM43.5377 46.8996H63.3936C63.7341 45.7496 63.6056 44.5115 63.0362 43.456C62.8531 43.1655 62.603 42.9231 62.3069 42.7494C62.0107 42.5756 61.6771 42.4755 61.3342 42.4575C60.334 42.4304 59.3561 42.7557 58.5714 43.3766C58.4871 43.4382 58.3875 43.4753 58.2834 43.4839C58.1794 43.4925 58.075 43.4722 57.9817 43.4253C57.8884 43.3784 57.8099 43.3066 57.7548 43.218C57.6997 43.1293 57.6702 43.0271 57.6694 42.9227C57.6796 42.497 57.5527 42.0793 57.3073 41.7312C57.062 41.3831 56.7113 41.1232 56.3069 40.9896C55.9026 40.8561 55.466 40.8561 55.0616 40.9897C54.6573 41.1233 54.3066 41.3833 54.0613 41.7314C53.9111 41.9147 53.748 42.0873 53.5734 42.2476L53.3805 42.4235C53.269 42.5663 53.1119 42.6667 52.9355 42.708C52.759 42.7492 52.5737 42.7289 52.4104 42.6504L52.1268 42.5653L51.5992 42.4121C51.0197 42.1587 50.3705 42.1126 49.7611 42.2817C49.2724 42.4534 48.8401 42.7557 48.5111 43.1558C48.1821 43.5558 47.9689 44.0383 47.8946 44.5509C47.883 44.6417 47.8496 44.7283 47.7972 44.8034C47.7449 44.8785 47.6751 44.9398 47.5939 44.9821C47.5133 45.0238 47.4238 45.0456 47.333 45.0456C47.2422 45.0456 47.1527 45.0238 47.072 44.9821C46.7414 44.8408 46.3805 44.785 46.0226 44.8197C45.6648 44.8544 45.3214 44.9785 45.024 45.1806C44.3866 45.6089 43.8785 46.2033 43.5547 46.8996H43.5377Z" fill="#093F68"/>
<path d="M69.5431 47.5181H57.2495L63.3992 25.9546L69.5431 47.5181Z" fill="#70CC40"/>
<path d="M69.5431 48.0853H57.2495C57.1614 48.0853 57.0745 48.0648 56.9958 48.0254C56.917 47.986 56.8485 47.9288 56.7956 47.8584C56.7437 47.7886 56.7084 47.7077 56.6927 47.6222C56.677 47.5366 56.6811 47.4485 56.7049 47.3648L62.8488 25.807C62.8815 25.6868 62.9528 25.5807 63.0517 25.505C63.1507 25.4294 63.2718 25.3884 63.3963 25.3884C63.5208 25.3884 63.6419 25.4294 63.7409 25.505C63.8398 25.5807 63.9111 25.6868 63.9438 25.807L70.0877 47.3648C70.1115 47.4485 70.1156 47.5366 70.0999 47.6222C70.0842 47.7077 70.0489 47.7886 69.997 47.8584C69.9441 47.9288 69.8756 47.986 69.7968 48.0254C69.7181 48.0648 69.6312 48.0853 69.5431 48.0853ZM58.004 46.9507H68.7829L63.4105 28.0251L58.004 46.9507Z" fill="#093F68"/>
<path d="M85.5186 47.5181H73.225L79.369 25.9546L85.5186 47.5181Z" fill="#70CC40"/>
<path d="M85.5356 48.0855H73.2249C73.1369 48.0855 73.05 48.065 72.9712 48.0256C72.8925 47.9862 72.8239 47.929 72.7711 47.8585C72.7191 47.7887 72.6839 47.7079 72.6682 47.6223C72.6524 47.5368 72.6566 47.4487 72.6803 47.365L78.8243 25.8071C78.8587 25.6893 78.9303 25.5858 79.0285 25.5121C79.1267 25.4385 79.2462 25.3987 79.3689 25.3987C79.4917 25.3987 79.6111 25.4385 79.7093 25.5121C79.8075 25.5858 79.8792 25.6893 79.9135 25.8071L86.0632 47.365C86.0861 47.4491 86.0894 47.5374 86.0727 47.623C86.0559 47.7086 86.0197 47.7892 85.9668 47.8585C85.9163 47.926 85.8514 47.9814 85.7768 48.0206C85.7022 48.0599 85.6198 48.082 85.5356 48.0855ZM73.9908 46.9508H84.7697L79.3746 28.0253L73.9908 46.9508Z" fill="#093F68"/>
<path d="M80.1915 47.518H67.8978L74.0475 29.7896L80.1915 47.518Z" fill="#70CC40"/>
<path d="M80.1916 48.0855H67.8979C67.8075 48.0851 67.7185 48.0632 67.6383 48.0214C67.5581 47.9797 67.4891 47.9194 67.4369 47.8456C67.3847 47.7718 67.351 47.6865 67.3384 47.597C67.3258 47.5075 67.3348 47.4163 67.3647 47.3309L73.5087 29.6025C73.5472 29.491 73.6196 29.3943 73.7157 29.3259C73.8118 29.2575 73.9268 29.2207 74.0448 29.2207C74.1627 29.2207 74.2777 29.2575 74.3738 29.3259C74.4699 29.3943 74.5423 29.491 74.5809 29.6025L80.7305 47.3309C80.7604 47.4166 80.7693 47.5082 80.7565 47.598C80.7437 47.6879 80.7095 47.7733 80.6568 47.8472C80.604 47.9213 80.5342 47.9816 80.4532 48.0231C80.3723 48.0646 80.2825 48.086 80.1916 48.0855ZM68.6979 46.9508H79.3973L74.0476 31.537L68.6979 46.9508Z" fill="#093F68"/>
<path d="M90.84 47.5181H78.5464L84.696 25.9546L90.84 47.5181Z" fill="#70CC40"/>
<path d="M90.84 48.0854H78.5464C78.4583 48.0854 78.3714 48.0649 78.2926 48.0255C78.2139 47.9861 78.1454 47.929 78.0925 47.8585C78.0405 47.7887 78.0053 47.7079 77.9896 47.6223C77.9738 47.5367 77.978 47.4487 78.0017 47.3649L84.1514 25.8071C84.1857 25.6844 84.2603 25.5768 84.3632 25.5017C84.4662 25.4266 84.5914 25.3883 84.7187 25.393C84.846 25.3883 84.9712 25.4266 85.0742 25.5017C85.1771 25.5768 85.2517 25.6844 85.286 25.8071L91.43 47.3649C91.4537 47.4487 91.4579 47.5367 91.4422 47.6223C91.4264 47.7079 91.3912 47.7887 91.3392 47.8585C91.282 47.9354 91.2062 47.9966 91.1189 48.0363C91.0316 48.076 90.9356 48.0929 90.84 48.0854ZM79.3009 46.9508H90.0798L84.6847 28.0253L79.3009 46.9508Z" fill="#093F68"/>
<path d="M101.488 47.518H89.1948L95.3445 29.7896L101.488 47.518Z" fill="#70CC40"/>
<path d="M101.488 48.0855H89.1948C89.1044 48.0851 89.0154 48.0632 88.9352 48.0214C88.855 47.9797 88.786 47.9194 88.7338 47.8456C88.6816 47.7718 88.6478 47.6865 88.6353 47.597C88.6227 47.5075 88.6317 47.4163 88.6615 47.3309L94.8055 29.6025C94.8441 29.491 94.9165 29.3943 95.0126 29.3259C95.1087 29.2575 95.2237 29.2207 95.3416 29.2207C95.4596 29.2207 95.5746 29.2575 95.6707 29.3259C95.7668 29.3943 95.8392 29.491 95.8778 29.6025L102.027 47.3309C102.057 47.4166 102.066 47.5082 102.053 47.598C102.041 47.6879 102.006 47.7733 101.954 47.8472C101.901 47.9213 101.831 47.9816 101.75 48.0231C101.669 48.0646 101.579 48.086 101.488 48.0855ZM89.9947 46.9508H100.694L95.3445 31.537L89.9947 46.9508Z" fill="#093F68"/>
<path d="M100.416 18.8743C100.415 19.7861 100.052 20.6603 99.4081 21.3056C98.7638 21.9509 97.8903 22.3148 96.9784 22.3178H79.9591C79.2795 22.3163 78.6156 22.1136 78.051 21.7355C77.4863 21.3574 77.0462 20.8206 76.786 20.1928C76.5258 19.5651 76.4571 18.8743 76.5887 18.2076C76.7203 17.5409 77.0461 16.9281 77.5253 16.4462C78.0986 15.8698 78.8593 15.5176 79.6697 15.4534C79.8267 14.7263 80.1538 14.0469 80.6243 13.4708C81.0948 12.8947 81.6953 12.4385 82.3763 12.1395C83.0573 11.8405 83.7996 11.7073 84.5421 11.7508C85.2846 11.7943 86.0062 12.0134 86.6477 12.3899C87.3115 11.3167 88.3071 10.4891 89.4835 10.0326C90.6599 9.57601 91.9531 9.51532 93.1671 9.85971C94.3812 10.2041 95.4498 10.9348 96.2113 11.9411C96.9727 12.9474 97.3854 14.1744 97.3869 15.4364V15.4704C98.2208 15.5689 98.9897 15.9698 99.548 16.5971C100.106 17.2244 100.415 18.0345 100.416 18.8743Z" fill="white"/>
<path d="M96.9783 22.8854H79.959C78.8962 22.8839 77.8775 22.4606 77.1265 21.7086C76.3755 20.9566 75.9537 19.9372 75.9537 18.8745C75.9536 17.9416 76.2796 17.038 76.8753 16.3201C77.471 15.6021 78.2989 15.115 79.2158 14.943C79.4347 14.2192 79.8065 13.5508 80.306 12.9831C80.8055 12.4153 81.4212 11.9615 82.1112 11.6522C82.8013 11.3429 83.5497 11.1855 84.3059 11.1904C85.0621 11.1954 85.8084 11.3627 86.4944 11.681C87.2683 10.6328 88.3453 9.84735 89.5799 9.43077C90.8145 9.01419 92.1471 8.98652 93.3979 9.35149C94.6487 9.71646 95.7574 10.4565 96.5742 11.4716C97.391 12.4868 97.8766 13.7282 97.9654 15.0281C98.8272 15.2473 99.5916 15.747 100.138 16.4486C100.685 17.1501 100.982 18.0136 100.984 18.9028C100.984 19.9656 100.562 20.9849 99.8108 21.737C99.0598 22.489 98.0411 22.9122 96.9783 22.9137V22.8854ZM84.2989 12.3107C83.3543 12.316 82.4394 12.6415 81.7037 13.234C80.968 13.8265 80.4549 14.651 80.2483 15.5727C80.2222 15.6906 80.1591 15.7971 80.0683 15.8767C79.9775 15.9563 79.8637 16.0048 79.7434 16.0152C78.9897 16.0571 78.2828 16.3942 77.7759 16.9535C77.2689 17.5127 77.0027 18.2492 77.0347 19.0034C77.0668 19.7575 77.3946 20.4687 77.9473 20.9829C78.4999 21.4971 79.2328 21.773 79.9873 21.7507H97.0067C97.737 21.7515 98.4401 21.4738 98.9729 20.9743C99.5057 20.4747 99.8281 19.7909 99.8743 19.062C99.9206 18.3332 99.6873 17.6141 99.222 17.0512C98.7567 16.4883 98.0943 16.1239 97.3697 16.0322C97.2324 16.0142 97.1064 15.9466 97.0155 15.8421C96.9246 15.7376 96.875 15.6034 96.8762 15.4649C96.8818 14.3236 96.5143 13.2117 95.8298 12.2985C95.1452 11.3853 94.181 10.7207 93.0839 10.406C91.9869 10.0913 90.817 10.1436 89.7524 10.555C88.6878 10.9664 87.7868 11.7144 87.1865 12.6851C87.1079 12.811 86.9832 12.9012 86.8389 12.9362C86.6947 12.9712 86.5425 12.9482 86.415 12.8723C85.7735 12.4968 85.0421 12.3027 84.2989 12.3107Z" fill="#DFEAEF"/>
<path d="M30.8412 14.9204C30.8397 15.8332 30.4764 16.7083 29.8309 17.3537C29.1855 17.9992 28.3104 18.3625 27.3976 18.364H10.3783C9.69798 18.364 9.03299 18.1621 8.46747 17.784C7.90195 17.4059 7.46132 16.8685 7.20136 16.2398C6.94139 15.6112 6.87378 14.9195 7.00707 14.2524C7.14037 13.5853 7.46858 12.9728 7.95017 12.4923C8.51967 11.9138 9.27946 11.5611 10.0889 11.4995C10.3169 10.4487 10.8977 9.50759 11.7347 8.83261C12.5718 8.15763 13.6146 7.78946 14.6898 7.7893C15.5278 7.78661 16.3509 8.01004 17.0725 8.43603C17.735 7.36139 18.73 6.53231 19.9065 6.07472C21.0831 5.61714 22.3768 5.55604 23.5912 5.90073C24.8056 6.24541 25.8744 6.97704 26.6351 7.98448C27.3958 8.99191 27.807 10.2201 27.8061 11.4825V11.5165C28.6405 11.615 29.4101 12.0156 29.9693 12.6428C30.5285 13.2699 30.8387 14.0801 30.8412 14.9204Z" fill="white"/>
<path d="M27.3976 18.9313H10.3782C9.38778 18.9191 8.43689 18.5408 7.70872 17.8693C6.98055 17.1978 6.5266 16.2806 6.43432 15.2944C6.34204 14.3082 6.61795 13.3227 7.20891 12.5278C7.79987 11.7328 8.66407 11.1847 9.63505 10.9889C9.85263 10.2665 10.2224 9.59914 10.7196 9.03167C11.2168 8.46421 11.8297 8.00983 12.5172 7.69914C13.2047 7.38845 13.9508 7.22865 14.7053 7.2305C15.4597 7.23235 16.205 7.39581 16.891 7.70987C17.6659 6.6626 18.7434 5.8781 19.978 5.46212C21.2127 5.04615 22.5452 5.0187 23.7959 5.38347C25.0466 5.74824 26.1555 6.48769 26.9729 7.50216C27.7904 8.51662 28.2772 9.75732 28.3677 11.057C29.2284 11.2772 29.9916 11.7774 30.5369 12.4789C31.0823 13.1804 31.3789 14.0432 31.3801 14.9317C31.3801 15.9945 30.9583 17.0138 30.2073 17.7659C29.4564 18.5179 28.4376 18.9411 27.3749 18.9426L27.3976 18.9313ZM14.7182 8.3566C13.7701 8.35605 12.8502 8.67904 12.1106 9.27218C11.371 9.86531 10.8559 10.6931 10.6505 11.6186C10.6241 11.7374 10.5602 11.8445 10.4683 11.9242C10.3764 12.0039 10.2613 12.0519 10.14 12.0611C9.42798 12.1231 8.76459 12.448 8.27902 12.9723C7.79344 13.4967 7.52048 14.1831 7.51331 14.8977C7.5133 15.6596 7.81556 16.3903 8.35374 16.9295C8.89192 17.4688 9.62205 17.7725 10.3839 17.774H27.4032C28.1341 17.7762 28.8382 17.4995 29.3721 17.0004C29.906 16.5014 30.2295 15.8174 30.2765 15.0881C30.3235 14.3588 30.0906 13.639 29.6252 13.0755C29.1599 12.512 28.4971 12.1472 27.772 12.0555C27.6336 12.0388 27.5062 11.9717 27.4142 11.867C27.3221 11.7624 27.2718 11.6275 27.2728 11.4882C27.2807 10.3464 26.9149 9.23334 26.2311 8.31895C25.5472 7.40456 24.583 6.73905 23.4855 6.42401C22.388 6.10897 21.2175 6.16171 20.1528 6.57417C19.0881 6.98663 18.1876 7.73616 17.5888 8.70834C17.5102 8.83427 17.3854 8.92439 17.2412 8.95939C17.097 8.99439 16.9447 8.97147 16.8172 8.89555C16.1781 8.532 15.4534 8.34593 14.7182 8.3566Z" fill="#DFEAEF"/>
<path d="M64.1139 13.5926C67.7108 13.5926 70.6267 10.6768 70.6267 7.07987C70.6267 3.48299 67.7108 0.567139 64.1139 0.567139C60.5171 0.567139 57.6012 3.48299 57.6012 7.07987C57.6012 10.6768 60.5171 13.5926 64.1139 13.5926Z" fill="#FFBC0E"/>
<path d="M64.1139 14.1601C62.7134 14.1612 61.344 13.7469 60.1789 12.9697C59.0139 12.1924 58.1055 11.087 57.5688 9.7934C57.032 8.49979 56.891 7.07605 57.1636 5.70228C57.4361 4.32851 58.11 3.06644 59.0999 2.07571C60.0898 1.08498 61.3514 0.410105 62.7249 0.13646C64.0985 -0.137186 65.5223 0.00269257 66.8163 0.538397C68.1104 1.0741 69.2165 1.98156 69.9947 3.14599C70.7729 4.31042 71.1883 5.6795 71.1883 7.08005C71.1853 8.95589 70.4392 10.7541 69.1133 12.0811C67.7874 13.408 65.9898 14.1556 64.1139 14.1601ZM64.1139 1.11193C62.9375 1.11081 61.7873 1.45869 60.8087 2.11155C59.8301 2.76441 59.0672 3.6929 58.6165 4.77952C58.1658 5.86613 58.0476 7.06203 58.2768 8.21586C58.506 9.36968 59.0724 10.4296 59.9042 11.2614C60.736 12.0932 61.7959 12.6596 62.9497 12.8888C64.1036 13.118 65.2995 12.9998 66.3861 12.5491C67.4727 12.0984 68.4012 11.3355 69.054 10.3569C69.7069 9.37833 70.0548 8.22806 70.0537 7.05168C70.0432 5.48221 69.4131 3.98041 68.3007 2.87326C67.1882 1.76611 65.6834 1.14325 64.1139 1.1403V1.11193Z" fill="#093F68"/>
</svg>
