<svg width="80" height="81" viewBox="0 0 80 81" fill="none" xmlns="http://www.w3.org/2000/svg">
<path d="M40 8C33.5721 8 27.2886 9.90609 21.944 13.4772C16.5994 17.0484 12.4338 22.1242 9.97393 28.0628C7.51408 34.0014 6.87047 40.5361 8.12449 46.8404C9.37851 53.1448 12.4738 58.9358 17.019 63.481C21.5643 68.0262 27.3552 71.1215 33.6596 72.3755C39.964 73.6295 46.4986 72.9859 52.4372 70.5261C58.3758 68.0662 63.4516 63.9006 67.0228 58.556C70.5939 53.2114 72.5 46.9279 72.5 40.5C72.4909 31.8833 69.0639 23.622 62.9709 17.5291C56.878 11.4361 48.6168 8.0091 40 8ZM67.5 40.5C67.5027 44.0281 66.8236 47.5234 65.5 50.7938L51.5313 42.2031C50.9373 41.8366 50.2729 41.5992 49.5813 41.5062L42.45 40.5438C41.4674 40.4156 40.4688 40.5803 39.5793 41.0173C38.6899 41.4542 37.9492 42.1439 37.45 43H34.725L33.5375 40.5438C33.2092 39.8598 32.7288 39.2601 32.1329 38.7905C31.5371 38.3208 30.8417 37.9938 30.1 37.8344L27.6 37.2937L30.0438 33H35.2656C36.1106 32.9983 36.9415 32.7834 37.6813 32.375L41.5094 30.2625C41.8457 30.075 42.1601 29.8507 42.4469 29.5938L50.8563 21.9875C51.6994 21.2319 52.2598 20.2115 52.445 19.0946C52.6302 17.9777 52.4291 16.831 51.875 15.8437L51.7625 15.6406C56.4681 17.8719 60.4445 21.3919 63.2301 25.792C66.0157 30.1922 67.4963 35.2922 67.5 40.5ZM44.7844 13.4187L47.5 18.2812L39.0906 25.8875L35.2656 28H30.0438C29.1648 27.9987 28.3011 28.2291 27.5396 28.668C26.7781 29.1069 26.1457 29.7388 25.7063 30.5L22.9781 35.2594L19.8063 26.8094L23.225 18.725C26.2511 16.3869 29.7322 14.7066 33.4453 13.7917C37.1584 12.8769 41.0216 12.7477 44.7875 13.4125L44.7844 13.4187ZM12.5 40.5C12.4958 36.4126 13.4078 32.3761 15.1688 28.6875L18.7125 38.1469C19.0078 38.9301 19.4951 39.6266 20.1295 40.1726C20.7639 40.7186 21.5253 41.0966 22.3438 41.2719L29.0406 42.7125L30.2313 45.1875C30.6445 46.0293 31.2848 46.7387 32.08 47.2357C32.8752 47.7327 33.7935 47.9975 34.7313 48H35.1938L32.9344 53.0719C32.5363 53.9649 32.4088 54.9551 32.5676 55.9199C32.7265 56.8847 33.1647 57.7817 33.8281 58.5L33.8719 58.5438L40 64.8563L39.3938 67.9813C32.212 67.8141 25.3799 64.8468 20.3554 59.7126C15.3309 54.5783 12.5119 47.6837 12.5 40.5ZM44.5563 67.6188L44.9094 65.8031C45.0545 65.0318 45.0171 64.2372 44.8 63.4829C44.5829 62.7286 44.1923 62.0356 43.6594 61.4594C43.644 61.4456 43.6294 61.431 43.6156 61.4156L37.5 55.1063L41.7813 45.5L48.9125 46.4625L63.2 55.25C61.1301 58.5007 58.4013 61.2812 55.1899 63.4117C51.9786 65.5422 48.356 66.9754 44.5563 67.6188Z" fill="#273257"/>
</svg>
