<svg width="82" height="81" viewBox="0 0 82 81" fill="none" xmlns="http://www.w3.org/2000/svg">
<g clip-path="url(#clip0_987_362)">
<path d="M73.3011 44.5813C72.4753 43.9513 71.5287 43.4942 70.5188 43.2379C69.5089 42.9817 68.4568 42.9316 67.4268 43.0907C73.3548 37.1657 76.3535 31.275 76.3535 25.5C76.3535 17.2282 69.6332 10.5 61.3725 10.5C59.1806 10.4864 57.0122 10.9479 55.0197 11.8522C53.0271 12.7565 51.2586 14.0815 49.8384 15.7344C48.4181 14.0815 46.6496 12.7565 44.6571 11.8522C42.6645 10.9479 40.4962 10.4864 38.3043 10.5C30.0435 10.5 23.3232 17.2282 23.3232 25.5C23.3232 28.9375 24.3459 32.2782 26.4987 35.8125C24.7356 36.2548 23.1265 37.162 21.8428 38.4375L14.7026 45.5H5.64645C4.30698 45.5 3.02236 46.0268 2.07521 46.9645C1.12805 47.9022 0.595947 49.174 0.595947 50.5L0.595947 63C0.595947 64.3261 1.12805 65.5979 2.07521 66.5356C3.02236 67.4733 4.30698 68 5.64645 68H38.4747C38.6812 68.0001 38.8869 67.975 39.0871 67.925L59.2891 62.925C59.4179 62.8947 59.5436 62.8529 59.6648 62.8L71.9343 57.6313L72.0732 57.5688C73.2524 56.9855 74.2622 56.1145 75.0074 55.038C75.7527 53.9616 76.2088 52.715 76.3329 51.4158C76.457 50.1165 76.245 48.8074 75.7168 47.6117C75.1886 46.416 74.3616 45.3731 73.3138 44.5813H73.3011ZM38.3043 15.5C40.2601 15.4717 42.1801 16.0215 43.8186 17.0792C45.4571 18.1369 46.7398 19.6543 47.5025 21.4375C47.6928 21.8961 48.0164 22.2883 48.4323 22.5643C48.8483 22.8403 49.3377 22.9876 49.8384 22.9876C50.3391 22.9876 50.8285 22.8403 51.2444 22.5643C51.6603 22.2883 51.984 21.8961 52.1742 21.4375C52.937 19.6543 54.2196 18.1369 55.8581 17.0792C57.4967 16.0215 59.4166 15.4717 61.3725 15.5C66.7544 15.5 71.303 20.0782 71.303 25.5C71.303 31.5969 66.3188 38.4938 56.8901 45.4688L53.3895 46.2657C53.6968 44.9806 53.7063 43.6434 53.4173 42.3543C53.1283 41.0651 52.5483 39.8574 51.7208 38.8217C50.8933 37.786 49.8397 36.9492 48.639 36.3739C47.4384 35.7987 46.1217 35.4999 44.7879 35.5H32.3763C29.6521 31.8625 28.3737 28.6625 28.3737 25.5C28.3737 20.0782 32.9223 15.5 38.3043 15.5ZM5.64645 50.5H13.2222V63H5.64645V50.5ZM69.8605 53.0657L57.8655 58.1219L38.1591 63H18.2727V49.0344L25.416 41.9657C25.8833 41.4994 26.4396 41.1297 27.0524 40.878C27.6653 40.6264 28.3226 40.498 28.9861 40.5H44.7879C45.7925 40.5 46.7559 40.8951 47.4663 41.5984C48.1767 42.3017 48.5757 43.2555 48.5757 44.25C48.5757 45.2446 48.1767 46.1984 47.4663 46.9017C46.7559 47.605 45.7925 48 44.7879 48H35.9495C35.2797 48 34.6374 48.2634 34.1639 48.7323C33.6903 49.2011 33.4242 49.837 33.4242 50.5C33.4242 51.1631 33.6903 51.799 34.1639 52.2678C34.6374 52.7367 35.2797 53 35.9495 53H46.0505C46.2406 52.9995 46.43 52.9786 46.6155 52.9375L67.7645 48.1219L67.8624 48.0969C68.508 47.9195 69.1971 47.9847 69.797 48.28C70.397 48.5753 70.8655 49.0798 71.1123 49.6965C71.3591 50.3132 71.3668 50.9985 71.134 51.6204C70.9011 52.2424 70.4442 52.7572 69.851 53.0657H69.8605Z" fill="#273257"/>
</g>
<defs>
<clipPath id="clip0_987_362">
<rect width="80.8081" height="80" fill="white" transform="translate(0.595947 0.5)"/>
</clipPath>
</defs>
</svg>
