<svg width="100" height="101" viewBox="0 0 100 101" fill="none" xmlns="http://www.w3.org/2000/svg">
<path d="M68.75 91.125C68.75 91.9538 68.4208 92.7486 67.8347 93.3347C67.2487 93.9207 66.4538 94.25 65.625 94.25H34.375C33.5462 94.25 32.7514 93.9207 32.1653 93.3347C31.5793 92.7486 31.25 91.9538 31.25 91.125C31.25 90.2962 31.5793 89.5013 32.1653 88.9153C32.7514 88.3292 33.5462 88 34.375 88H65.625C66.4538 88 67.2487 88.3292 67.8347 88.9153C68.4208 89.5013 68.75 90.2962 68.75 91.125ZM84.375 41.125C84.3885 46.3345 83.2116 51.4783 80.9342 56.1637C78.6569 60.8491 75.3392 64.9523 71.2344 68.1601C70.4669 68.7484 69.844 69.5044 69.4134 70.3704C68.9828 71.2363 68.7559 72.1892 68.75 73.1562V75.5C68.75 77.1576 68.0915 78.7473 66.9194 79.9194C65.7473 81.0915 64.1576 81.75 62.5 81.75H37.5C35.8424 81.75 34.2527 81.0915 33.0806 79.9194C31.9085 78.7473 31.25 77.1576 31.25 75.5V73.1562C31.2494 72.2007 31.0297 71.2581 30.6078 70.4008C30.1859 69.5435 29.5731 68.7943 28.8164 68.2109C24.7224 65.0224 21.4073 60.9445 19.1219 56.2858C16.8365 51.627 15.6407 46.5094 15.625 41.3203C15.5235 22.6992 30.5703 7.19919 49.1719 6.74997C53.7553 6.63952 58.3145 7.44705 62.5811 9.12504C66.8477 10.803 70.7356 13.3176 74.0158 16.5206C77.2961 19.7237 79.9024 23.5506 81.6815 27.7761C83.4605 32.0016 84.3764 36.5402 84.375 41.125ZM78.125 41.125C78.1261 37.3736 77.3768 33.66 75.921 30.2027C74.4653 26.7453 72.3326 23.6141 69.6486 20.9934C66.9645 18.3726 63.7833 16.3153 60.2922 14.9426C56.801 13.5698 53.0706 12.9093 49.3203 13C34.086 13.3593 21.793 26.0429 21.875 41.2773C21.889 45.5218 22.8683 49.7076 24.7389 53.5177C26.6095 57.3279 29.3222 60.6626 32.6719 63.2695C34.1775 64.44 35.3954 65.9394 36.2323 67.6531C37.0691 69.3667 37.5028 71.2491 37.5 73.1562V75.5H46.875V58.0429L35.2891 46.4609C34.7027 45.8745 34.3733 45.0792 34.3733 44.25C34.3733 43.4207 34.7027 42.6254 35.2891 42.039C35.8755 41.4527 36.6708 41.1232 37.5 41.1232C38.3293 41.1232 39.1246 41.4527 39.711 42.039L50 52.332L60.2891 42.039C60.5794 41.7487 60.9241 41.5184 61.3035 41.3612C61.6828 41.2041 62.0894 41.1232 62.5 41.1232C62.9106 41.1232 63.3172 41.2041 63.6966 41.3612C64.0759 41.5184 64.4206 41.7487 64.711 42.039C65.0013 42.3294 65.2316 42.6741 65.3888 43.0534C65.5459 43.4328 65.6268 43.8394 65.6268 44.25C65.6268 44.6606 65.5459 45.0672 65.3888 45.4465C65.2316 45.8259 65.0013 46.1706 64.711 46.4609L53.125 58.0429V75.5H62.5V73.1562C62.5035 71.2436 62.9442 69.357 63.7884 67.6408C64.6327 65.9245 65.8581 64.424 67.3711 63.2539C70.7309 60.6282 73.4463 57.2696 75.31 53.4345C77.1738 49.5993 78.1366 45.389 78.125 41.125Z" fill="#273257"/>
</svg>
