<svg width="106" height="100" viewBox="0 0 106 100" fill="none" xmlns="http://www.w3.org/2000/svg">
<path d="M26.0434 99.3466C25.6007 99.3641 25.1589 99.2941 24.7433 99.1405C24.3277 98.9869 23.9465 98.7527 23.6216 98.4515C23.2967 98.1503 23.0344 97.7879 22.8499 97.3852C22.6653 96.9824 22.562 96.5471 22.546 96.1044L19.4344 16.8837C19.4169 16.4406 19.4869 15.9985 19.6404 15.5826C19.794 15.1666 20.028 14.785 20.3291 14.4596C20.6303 14.1342 20.9926 13.8714 21.3954 13.6861C21.7982 13.5009 22.2336 13.3969 22.6767 13.38L97.9395 10.4489C98.3825 10.4314 98.8246 10.5014 99.2405 10.655C99.6565 10.8085 100.038 11.0425 100.363 11.3437C100.689 11.6448 100.952 12.0071 101.137 12.4099C101.322 12.8127 101.426 13.2481 101.443 13.6912L104.53 92.2896C104.57 93.3517 104.187 94.3863 103.465 95.1659C102.742 95.9454 101.74 96.4062 100.678 96.4466L26.0434 99.3466Z" fill="#68E1FD"/>
<path d="M25.9127 99.9751C24.8791 99.9758 23.8856 99.5752 23.1415 98.8578C22.3974 98.1404 21.9608 97.1621 21.9237 96.1292L18.8121 16.9085C18.7717 15.8491 19.1534 14.817 19.8733 14.0387C20.5932 13.2605 21.5925 12.7997 22.6518 12.7576L97.9395 9.83275C98.4639 9.81107 98.9875 9.89312 99.4802 10.0742C99.9729 10.2553 100.425 10.5318 100.811 10.8879C101.196 11.244 101.508 11.6728 101.727 12.1495C101.947 12.6263 102.07 13.1417 102.09 13.6662L105.152 92.2895C105.198 93.5162 104.755 94.7109 103.921 95.6115C103.086 96.5121 101.929 97.0452 100.703 97.0938L26.0683 100L25.9127 99.9751ZM98.1013 11.0712H97.9893L22.7265 14.0023C21.9974 14.0314 21.3095 14.3484 20.8137 14.8839C20.318 15.4193 20.0547 16.1295 20.0816 16.8587L23.1621 96.0856C23.1757 96.4467 23.2609 96.8015 23.4126 97.1294C23.5642 97.4574 23.7795 97.7519 24.0458 97.9961C24.584 98.4897 25.295 98.7513 26.0248 98.7242L100.659 95.818C101.555 95.7824 102.4 95.3929 103.009 94.7348C103.618 94.0768 103.941 93.2041 103.908 92.3082L100.846 13.716C100.818 13.006 100.517 12.3342 100.006 11.8412C99.4943 11.3482 98.8118 11.0722 98.1013 11.0712Z" fill="#093F68"/>
<path d="M81.9584 92.4825H17.947C17.0525 92.4825 16.1946 92.1271 15.562 91.4946C14.9295 90.862 14.5741 90.0041 14.5741 89.1095V9.82657C14.5733 9.38339 14.66 8.94442 14.8292 8.53483C14.9984 8.12523 15.2468 7.75307 15.5602 7.4397C15.8736 7.12633 16.2457 6.87792 16.6553 6.7087C17.0649 6.53948 17.5039 6.4528 17.947 6.45362H93.2472C93.6901 6.45362 94.1287 6.54086 94.538 6.71037C94.9472 6.87988 95.319 7.12832 95.6322 7.44153C95.9454 7.75474 96.1939 8.12657 96.3634 8.5358C96.5329 8.94502 96.6201 9.38362 96.6201 9.82657V77.0677L81.9584 92.4825Z" fill="white"/>
<path d="M81.9584 93.1048H17.947C16.8874 93.1031 15.8715 92.6819 15.1216 91.9332C14.3717 91.1844 13.9488 90.1692 13.9456 89.1095V9.82656C13.9488 8.76689 14.3717 7.75164 15.1216 7.00292C15.8715 6.2542 16.8874 5.83294 17.947 5.8313H93.2472C94.3063 5.83294 95.3215 6.2544 96.0704 7.0033C96.8193 7.7522 97.2408 8.76746 97.2424 9.82656V77.0677C97.2418 77.2279 97.1794 77.3817 97.0682 77.4971L82.4064 92.9118C82.3486 92.9725 82.2791 93.0209 82.2021 93.054C82.1251 93.0872 82.0422 93.1044 81.9584 93.1048ZM17.947 7.07593C17.217 7.07593 16.5167 7.36553 15.9998 7.88119C15.483 8.39686 15.1918 9.09648 15.1902 9.82656V89.1095C15.1935 89.8391 15.4852 90.5378 16.0017 91.0531C16.5181 91.5684 17.2175 91.8585 17.947 91.8601H81.6908L96.004 76.8188V9.82656C96.0024 9.09755 95.7121 8.39888 95.1966 7.88339C94.6811 7.3679 93.9824 7.07757 93.2534 7.07593H17.947Z" fill="#093F68"/>
<path d="M81.9584 92.4825V80.5838C81.96 79.731 82.2995 78.9136 82.9025 78.3106C83.5056 77.7076 84.3229 77.3681 85.1757 77.3665H96.645L81.9584 92.4825Z" fill="#FFBC0E"/>
<path d="M81.9584 93.1048C81.8798 93.1029 81.802 93.0882 81.7281 93.0613C81.6123 93.0151 81.5131 92.9353 81.4432 92.8321C81.3733 92.7289 81.3359 92.6071 81.3361 92.4825V80.5838C81.3377 79.566 81.7428 78.5903 82.4625 77.8706C83.1822 77.1509 84.1579 76.7458 85.1757 76.7442H96.645C96.7679 76.7434 96.8882 76.7791 96.9908 76.8466C97.0935 76.9142 97.1738 77.0106 97.2217 77.1238C97.2696 77.2369 97.283 77.3617 97.2601 77.4824C97.2372 77.6031 97.1791 77.7143 97.0931 77.8021L82.4064 92.9119C82.3486 92.9726 82.2791 93.0209 82.2021 93.0541C82.1251 93.0872 82.0422 93.1045 81.9584 93.1048ZM85.1757 77.9763C84.4875 77.9763 83.8274 78.2497 83.3408 78.7364C82.8541 79.2231 82.5807 79.8831 82.5807 80.5714V90.9329L95.1701 77.9763H85.1757Z" fill="#093F68"/>
<path d="M81.9583 26.5605H45.864C45.699 26.5605 45.5407 26.495 45.424 26.3783C45.3073 26.2616 45.2417 26.1033 45.2417 25.9382C45.2417 25.7732 45.3073 25.6149 45.424 25.4982C45.5407 25.3815 45.699 25.3159 45.864 25.3159H81.9583C82.1233 25.3159 82.2816 25.3815 82.3983 25.4982C82.515 25.6149 82.5806 25.7732 82.5806 25.9382C82.5806 26.1033 82.515 26.2616 82.3983 26.3783C82.2816 26.495 82.1233 26.5605 81.9583 26.5605Z" fill="#093F68"/>
<path d="M81.9583 36.4243H29.7772C29.6122 36.4243 29.4539 36.3587 29.3372 36.242C29.2205 36.1253 29.1549 35.9671 29.1549 35.802C29.1549 35.637 29.2205 35.4787 29.3372 35.362C29.4539 35.2453 29.6122 35.1797 29.7772 35.1797H81.9583C82.1234 35.1797 82.2817 35.2453 82.3984 35.362C82.5151 35.4787 82.5807 35.637 82.5807 35.802C82.5807 35.9671 82.5151 36.1253 82.3984 36.242C82.2817 36.3587 82.1234 36.4243 81.9583 36.4243Z" fill="#093F68"/>
<path d="M81.9583 46.2942H29.7772C29.6122 46.2942 29.4539 46.2286 29.3372 46.1119C29.2205 45.9952 29.1549 45.8369 29.1549 45.6719C29.1549 45.5068 29.2205 45.3485 29.3372 45.2318C29.4539 45.1151 29.6122 45.0496 29.7772 45.0496H81.9583C82.1234 45.0496 82.2817 45.1151 82.3984 45.2318C82.5151 45.3485 82.5807 45.5068 82.5807 45.6719C82.5807 45.8369 82.5151 45.9952 82.3984 46.1119C82.2817 46.2286 82.1234 46.2942 81.9583 46.2942Z" fill="#093F68"/>
<path d="M81.9583 56.158H29.7772C29.6122 56.158 29.4539 56.0924 29.3372 55.9757C29.2205 55.859 29.1549 55.7007 29.1549 55.5356C29.1549 55.3706 29.2205 55.2123 29.3372 55.0956C29.4539 54.9789 29.6122 54.9133 29.7772 54.9133H81.9583C82.1234 54.9133 82.2817 54.9789 82.3984 55.0956C82.5151 55.2123 82.5807 55.3706 82.5807 55.5356C82.5807 55.7007 82.5151 55.859 82.3984 55.9757C82.2817 56.0924 82.1234 56.158 81.9583 56.158Z" fill="#093F68"/>
<path d="M81.9583 66.0278H29.7772C29.6122 66.0278 29.4539 65.9623 29.3372 65.8456C29.2205 65.7289 29.1549 65.5706 29.1549 65.4055C29.1549 65.2405 29.2205 65.0822 29.3372 64.9655C29.4539 64.8488 29.6122 64.7832 29.7772 64.7832H81.9583C82.1234 64.7832 82.2817 64.8488 82.3984 64.9655C82.5151 65.0822 82.5807 65.2405 82.5807 65.4055C82.5807 65.5706 82.5151 65.7289 82.3984 65.8456C82.2817 65.9623 82.1234 66.0278 81.9583 66.0278Z" fill="#093F68"/>
<path d="M61.9696 75.8977H29.7772C29.6122 75.8977 29.4539 75.8321 29.3372 75.7154C29.2205 75.5987 29.1549 75.4404 29.1549 75.2754C29.1549 75.1103 29.2205 74.9521 29.3372 74.8353C29.4539 74.7186 29.6122 74.6531 29.7772 74.6531H61.9696C62.1346 74.6531 62.2929 74.7186 62.4096 74.8353C62.5263 74.9521 62.5919 75.1103 62.5919 75.2754C62.5919 75.4404 62.5263 75.5987 62.4096 75.7154C62.2929 75.8321 62.1346 75.8977 61.9696 75.8977Z" fill="#093F68"/>
<path d="M35.7701 17.8668C34.9641 17.9069 34.1714 17.6495 33.5427 17.1436C32.914 16.6376 32.493 15.9184 32.3598 15.1224L30.3933 4.02033C30.2946 3.54487 30.3061 3.05312 30.4269 2.5828C30.5477 2.11247 30.7747 1.67606 31.0903 1.30704C31.6854 0.653637 32.4801 0.21564 33.3503 0.0614078C34.2205 -0.0928247 35.1174 0.0453834 35.9008 0.454462C36.3237 0.692949 36.6866 1.02494 36.9616 1.42509C37.2366 1.82523 37.4166 2.28294 37.4877 2.76325L38.0353 5.87483C38.0496 5.95533 38.048 6.03787 38.0304 6.11772C38.0128 6.19758 37.9797 6.27319 37.9329 6.34023C37.8861 6.40727 37.8265 6.46443 37.7576 6.50844C37.6887 6.55245 37.6117 6.58245 37.5312 6.59671C37.4507 6.61105 37.3682 6.60938 37.2883 6.5918C37.2085 6.57423 37.1329 6.54109 37.0658 6.49427C36.9988 6.44746 36.9416 6.38789 36.8976 6.31898C36.8536 6.25006 36.8236 6.17315 36.8094 6.09264L36.2617 2.98106C36.2219 2.68192 36.1136 2.396 35.9453 2.14557C35.7769 1.89515 35.5529 1.68698 35.2909 1.53729C34.7583 1.27101 34.154 1.18351 33.5677 1.28776C32.9814 1.39201 32.4444 1.68247 32.0362 2.11604C31.8413 2.34596 31.7023 2.61783 31.63 2.9104C31.5577 3.20296 31.554 3.50829 31.6192 3.80252L33.5795 14.9046C33.8409 16.3608 35.1229 16.7716 36.2742 16.6035C37.4254 16.4355 38.4834 15.5394 38.2282 14.1143L37.8237 11.8428C37.7948 11.6778 37.8327 11.508 37.929 11.3709C38.0253 11.2338 38.1721 11.1405 38.3371 11.1116C38.5022 11.0827 38.6719 11.1206 38.8091 11.2169C38.9462 11.3132 39.0395 11.46 39.0684 11.625L39.4666 13.8965C39.8587 16.087 38.2718 17.5495 36.5106 17.8606C36.2643 17.8824 36.0167 17.8845 35.7701 17.8668Z" fill="#093F68"/>
<path d="M23.5293 72.7092L16.6014 75.497L1.03612 36.8162C0.761319 36.1333 0.769054 35.3692 1.05762 34.692C1.34619 34.0148 1.89195 33.48 2.57485 33.2052L4.34724 32.492C5.03014 32.2172 5.79423 32.2249 6.47143 32.5135C7.14862 32.8021 7.68345 33.3478 7.95825 34.0307L23.5235 72.7116L23.5293 72.7092Z" fill="#F56132"/>
<path d="M16.609 76.1405C16.5255 76.142 16.4426 76.125 16.3663 76.0907C16.2143 76.0276 16.0934 75.9067 16.0303 75.7547L0.472411 37.0902C0.301562 36.6779 0.213623 36.2359 0.213623 35.7896C0.213623 35.3432 0.301562 34.9013 0.472411 34.4889C0.646676 34.0768 0.901624 33.7038 1.22225 33.3917C1.54288 33.0796 1.9227 32.8348 2.33936 32.6718L4.10673 31.9561C4.9414 31.6209 5.8747 31.629 6.70341 31.9787C7.53212 32.3284 8.18913 32.9913 8.53139 33.8231L24.0893 72.4813C24.1508 72.634 24.1494 72.8049 24.0852 72.9565C24.0211 73.1081 23.8995 73.2281 23.747 73.2903L16.8455 76.1094C16.7694 76.1349 16.6891 76.1455 16.609 76.1405ZM5.40737 32.958C5.13227 32.9578 4.8597 33.0107 4.60458 33.1136L2.84966 33.8231C2.32058 34.0385 1.89845 34.4549 1.67567 34.9809C1.45289 35.5069 1.44763 36.0998 1.66103 36.6297L16.9887 74.7092L22.7513 72.3879L7.39256 34.3085C7.23164 33.9102 6.95562 33.569 6.59978 33.3285C6.24394 33.0879 5.82444 32.9589 5.39492 32.958H5.40737Z" fill="#093F68"/>
<path d="M16.6152 75.5245L23.5354 72.7366L24.2759 81.8224L24.5622 85.2887L22.3654 82.5878L16.6152 75.5245Z" fill="white"/>
<path d="M24.5622 85.9108C24.4702 85.9102 24.3796 85.8893 24.2967 85.8494C24.2139 85.8096 24.1409 85.752 24.083 85.6806L16.1298 75.9164C16.0681 75.8409 16.025 75.7519 16.004 75.6567C15.983 75.5615 15.9847 75.4626 16.0089 75.3681C16.0331 75.2736 16.0792 75.1862 16.1434 75.1128C16.2077 75.0394 16.2883 74.9822 16.3787 74.9456L23.3051 72.1577C23.3949 72.1224 23.4918 72.1086 23.5879 72.1172C23.684 72.1259 23.7768 72.1568 23.8589 72.2074C23.943 72.2581 24.0139 72.3279 24.0658 72.4112C24.1177 72.4945 24.1492 72.5889 24.1577 72.6866L25.1845 85.2387C25.1937 85.3707 25.1607 85.5021 25.0902 85.614C25.0197 85.7259 24.9154 85.8124 24.7924 85.861C24.7198 85.8931 24.6415 85.91 24.5622 85.9108ZM17.6296 75.7858L23.778 83.3407L22.9815 73.6201L17.6296 75.7858Z" fill="#093F68"/>
<path d="M22.3655 82.5875L24.276 81.822L24.5623 85.2883L22.3655 82.5875Z" fill="#093F68"/>
<path d="M24.5623 85.911C24.4704 85.9104 24.3797 85.8894 24.2969 85.8496C24.214 85.8098 24.141 85.7521 24.0831 85.6807L21.8801 82.9861C21.818 82.9097 21.7749 82.8197 21.7543 82.7234C21.7338 82.6271 21.7363 82.5273 21.7619 82.4322C21.7872 82.3384 21.8342 82.2518 21.899 82.1794C21.9639 82.107 22.0448 82.0508 22.1352 82.0153L24.0457 81.2436C24.1359 81.2073 24.2334 81.1925 24.3303 81.2007C24.4272 81.2088 24.5208 81.2395 24.6037 81.2903C24.6866 81.3411 24.7564 81.4106 24.8076 81.4933C24.8587 81.576 24.8898 81.6695 24.8983 81.7664L25.1846 85.2389C25.1938 85.3708 25.1608 85.5022 25.0903 85.6141C25.0198 85.726 24.9155 85.8126 24.7925 85.8612C24.7199 85.8932 24.6416 85.9102 24.5623 85.911ZM23.3799 82.8492L23.7782 83.3408L23.7284 82.7185L23.3799 82.8492Z" fill="#093F68"/>
</svg>
