<svg width="100" height="101" viewBox="0 0 100 101" fill="none" xmlns="http://www.w3.org/2000/svg">
<path d="M93.5274 52.4531L81.0274 21.2031C80.7522 20.5148 80.2412 19.9467 79.5857 19.6004C78.9303 19.2541 78.173 19.152 77.4493 19.3125L53.1251 24.7188V16.125C53.1251 15.2962 52.7958 14.5013 52.2098 13.9153C51.6237 13.3292 50.8289 13 50.0001 13C49.1713 13 48.3764 13.3292 47.7904 13.9153C47.2043 14.5013 46.8751 15.2962 46.8751 16.125V26.1172L21.1954 31.8242C20.7003 31.9336 20.2392 32.1618 19.852 32.4891C19.4647 32.8165 19.163 33.2331 18.9727 33.7031V33.7266L6.47272 64.9531C6.32318 65.3256 6.24756 65.7236 6.25006 66.125C6.25006 75.2305 15.836 78.625 21.8751 78.625C27.9141 78.625 37.5001 75.2305 37.5001 66.125C37.5026 65.7236 37.4269 65.3256 37.2774 64.9531L26.1407 37.1289L46.8751 32.5312V81.75H40.6251C39.7963 81.75 39.0014 82.0792 38.4154 82.6653C37.8293 83.2513 37.5001 84.0462 37.5001 84.875C37.5001 85.7038 37.8293 86.4987 38.4154 87.0847C39.0014 87.6708 39.7963 88 40.6251 88H59.3751C60.2039 88 60.9987 87.6708 61.5848 87.0847C62.1708 86.4987 62.5001 85.7038 62.5001 84.875C62.5001 84.0462 62.1708 83.2513 61.5848 82.6653C60.9987 82.0792 60.2039 81.75 59.3751 81.75H53.1251V31.1328L73.0469 26.7109L62.7227 52.4531C62.5732 52.8256 62.4976 53.2236 62.5001 53.625C62.5001 62.7305 72.086 66.125 78.1251 66.125C84.1641 66.125 93.7501 62.7305 93.7501 53.625C93.7526 53.2236 93.6769 52.8256 93.5274 52.4531ZM21.8751 72.375C18.9337 72.375 12.9844 70.9648 12.5274 66.6562L21.8751 43.2891L31.2227 66.6562C30.7657 70.9648 24.8165 72.375 21.8751 72.375ZM78.1251 59.875C75.1837 59.875 69.2344 58.4648 68.7774 54.1562L78.1251 30.7891L87.4727 54.1562C87.0157 58.4648 81.0665 59.875 78.1251 59.875Z" fill="#273257"/>
</svg>
