<svg width="100" height="101" viewBox="0 0 100 101" fill="none" xmlns="http://www.w3.org/2000/svg">
<path d="M93.4297 38.4921C93.039 37.2911 92.3016 36.2325 91.3103 35.4498C90.3191 34.6671 89.1183 34.1952 87.8594 34.0937L64.8125 32.2343L55.9141 10.7148C55.4328 9.5422 54.6138 8.5392 53.5611 7.8333C52.5083 7.1274 51.2695 6.75049 50.002 6.75049C48.7345 6.75049 47.4956 7.1274 46.4429 7.8333C45.3901 8.5392 44.5711 9.5422 44.0899 10.7148L35.1992 32.2304L12.1406 34.0937C10.8796 34.2003 9.6781 34.6768 8.68664 35.4632C7.69517 36.2497 6.95785 37.3113 6.56705 38.515C6.17625 39.7187 6.14935 41.0109 6.48973 42.2298C6.8301 43.4487 7.52261 44.5401 8.48049 45.3671L26.0586 60.5351L20.7031 83.2148C20.4036 84.4469 20.477 85.7403 20.9138 86.9306C21.3507 88.121 22.1314 89.1548 23.1569 89.9006C24.1823 90.6465 25.4063 91.0708 26.6734 91.1198C27.9404 91.1688 29.1935 90.8402 30.2735 90.1757L50 78.0351L69.7383 90.1757C70.8187 90.8323 72.0691 91.1546 73.3323 91.1019C74.5954 91.0493 75.8148 90.6241 76.8367 89.8798C77.8587 89.1356 78.6376 88.1056 79.0754 86.9196C79.5132 85.7336 79.5902 84.4445 79.2969 83.2148L73.9219 60.5312L91.5 45.3632C92.4657 44.5375 93.1645 43.4438 93.508 42.2206C93.8515 40.9974 93.8243 39.6998 93.4297 38.4921ZM87.4375 40.6289L68.4141 57.0351C67.9803 57.409 67.6575 57.895 67.4812 58.4399C67.3048 58.9848 67.2816 59.5677 67.4141 60.1249L73.2266 84.6562C73.2416 84.69 73.2431 84.7283 73.2308 84.7632C73.2184 84.7981 73.1931 84.8269 73.1602 84.8437C73.0899 84.8984 73.0703 84.8867 73.0117 84.8437L51.6367 71.6992C51.1445 71.3965 50.5779 71.2363 50 71.2363C49.4221 71.2363 48.8556 71.3965 48.3633 71.6992L26.9883 84.8515C26.9297 84.8867 26.9141 84.8984 26.8399 84.8515C26.8069 84.8347 26.7816 84.8059 26.7693 84.771C26.7569 84.7361 26.7584 84.6978 26.7735 84.664L32.586 60.1328C32.7184 59.5755 32.6952 58.9926 32.5189 58.4477C32.3425 57.9028 32.0198 57.4168 31.586 57.0429L12.5625 40.6367C12.5156 40.5976 12.4727 40.5624 12.5117 40.4414C12.5508 40.3203 12.5821 40.3359 12.6406 40.3281L37.6094 38.3124C38.1821 38.2633 38.7301 38.0572 39.1933 37.7167C39.6564 37.3763 40.0166 36.9147 40.2344 36.3828L49.8516 13.0976C49.8828 13.0312 49.8946 12.9999 49.9883 12.9999C50.0821 12.9999 50.0938 13.0312 50.125 13.0976L59.7656 36.3828C59.9854 36.9149 60.348 37.376 60.8133 37.7151C61.2785 38.0543 61.8285 38.2583 62.4024 38.3046L87.3711 40.3203C87.4297 40.3203 87.4649 40.3203 87.5 40.4335C87.5352 40.5468 87.5 40.5898 87.4375 40.6289Z" fill="#273257"/>
</svg>
